<svg viewBox="0 0 330 200" xmlns="http://www.w3.org/2000/svg"><g><g><g><g><g><line x1="58" y1="178" x2="53" y2="178" style="visibility: inherit;" fill="rgb(0, 0, 0)" stroke="rgb(204, 204, 204)" stroke-width="1px"></line><line x1="58" y1="160.2" x2="53" y2="160.2" style="visibility: inherit;" fill="rgb(0, 0, 0)" stroke="rgb(204, 204, 204)" stroke-width="1px"></line><line x1="58" y1="142.40000000000003" x2="53" y2="142.40000000000003" style="visibility: inherit;" fill="rgb(0, 0, 0)" stroke="rgb(204, 204, 204)" stroke-width="1px"></line><line x1="58" y1="124.6" x2="53" y2="124.6" style="visibility: inherit;" fill="rgb(0, 0, 0)" stroke="rgb(204, 204, 204)" stroke-width="1px"></line><line x1="58" y1="106.8" x2="53" y2="106.8" style="visibility: inherit;" fill="rgb(0, 0, 0)" stroke="rgb(204, 204, 204)" stroke-width="1px"></line><line x1="58" y1="89.00000000000001" x2="53" y2="89.00000000000001" style="visibility: inherit;" fill="rgb(0, 0, 0)" stroke="rgb(204, 204, 204)" stroke-width="1px"></line><line x1="58" y1="71.2" x2="53" y2="71.2" style="visibility: inherit;" fill="rgb(0, 0, 0)" stroke="rgb(204, 204, 204)" stroke-width="1px"></line><line x1="58" y1="53.400000000000034" x2="53" y2="53.400000000000034" style="visibility: inherit;" fill="rgb(0, 0, 0)" stroke="rgb(204, 204, 204)" stroke-width="1px"></line><line x1="58" y1="35.60000000000002" x2="53" y2="35.60000000000002" style="visibility: inherit;" fill="rgb(0, 0, 0)" stroke="rgb(204, 204, 204)" stroke-width="1px"></line><line x1="58" y1="17.80000000000001" x2="53" y2="17.80000000000001" style="visibility: inherit;" fill="rgb(0, 0, 0)" stroke="rgb(204, 204, 204)" stroke-width="1px"></line><line x1="58" y1="0" x2="53" y2="0" style="visibility: inherit;" fill="rgb(0, 0, 0)" stroke="rgb(204, 204, 204)" stroke-width="1px"></line></g><g transform="translate(48, 0)"><text x="0" y="178" dx="0em" dy="0.3em" style="text-anchor: end; visibility: hidden; font-family: &quot;Helvetica Neue&quot;, sans-serif; font-size: 12px; font-weight: 200;" fill="rgb(50, 49, 63)" stroke="none" stroke-width="1px">0.6</text><text x="0" y="160.2" dx="0em" dy="0.3em" style="text-anchor: end; visibility: inherit; font-family: &quot;Helvetica Neue&quot;, sans-serif; font-size: 12px; font-weight: 200;" fill="rgb(50, 49, 63)" stroke="none" stroke-width="1px">0.65</text><text x="0" y="142.40000000000003" dx="0em" dy="0.3em" style="text-anchor: end; visibility: hidden; font-family: &quot;Helvetica Neue&quot;, sans-serif; font-size: 12px; font-weight: 200;" fill="rgb(50, 49, 63)" stroke="none" stroke-width="1px">0.7</text><text x="0" y="124.6" dx="0em" dy="0.3em" style="text-anchor: end; visibility: inherit; font-family: &quot;Helvetica Neue&quot;, sans-serif; font-size: 12px; font-weight: 200;" fill="rgb(50, 49, 63)" stroke="none" stroke-width="1px">0.75</text><text x="0" y="106.8" dx="0em" dy="0.3em" style="text-anchor: end; visibility: hidden; font-family: &quot;Helvetica Neue&quot;, sans-serif; font-size: 12px; font-weight: 200;" fill="rgb(50, 49, 63)" stroke="none" stroke-width="1px">0.8</text><text x="0" y="89.00000000000001" dx="0em" dy="0.3em" style="text-anchor: end; visibility: inherit; font-family: &quot;Helvetica Neue&quot;, sans-serif; font-size: 12px; font-weight: 200;" fill="rgb(50, 49, 63)" stroke="none" stroke-width="1px">0.85</text><text x="0" y="71.2" dx="0em" dy="0.3em" style="text-anchor: end; visibility: hidden; font-family: &quot;Helvetica Neue&quot;, sans-serif; font-size: 12px; font-weight: 200;" fill="rgb(50, 49, 63)" stroke="none" stroke-width="1px">0.9</text><text x="0" y="53.400000000000034" dx="0em" dy="0.3em" style="text-anchor: end; visibility: inherit; font-family: &quot;Helvetica Neue&quot;, sans-serif; font-size: 12px; font-weight: 200;" fill="rgb(50, 49, 63)" stroke="none" stroke-width="1px">0.95</text><text x="0" y="35.60000000000002" dx="0em" dy="0.3em" style="text-anchor: end; visibility: hidden; font-family: &quot;Helvetica Neue&quot;, sans-serif; font-size: 12px; font-weight: 200;" fill="rgb(50, 49, 63)" stroke="none" stroke-width="1px">1</text><text x="0" y="17.80000000000001" dx="0em" dy="0.3em" style="text-anchor: end; visibility: inherit; font-family: &quot;Helvetica Neue&quot;, sans-serif; font-size: 12px; font-weight: 200;" fill="rgb(50, 49, 63)" stroke="none" stroke-width="1px">1.05</text><text x="0" y="0" dx="0em" dy="0.3em" style="text-anchor: end; visibility: hidden; font-family: &quot;Helvetica Neue&quot;, sans-serif; font-size: 12px; font-weight: 200;" fill="rgb(50, 49, 63)" stroke="none" stroke-width="1px">1.1</text></g><line x1="58" y1="0" x2="58" y2="178" fill="rgb(0, 0, 0)" stroke="rgb(204, 204, 204)" stroke-width="1px"></line></g></g><g transform="translate(58, 0)" clip-path="url(#clip_0)"><clipPath id="clip_0"><rect width="272" height="178"></rect></clipPath><g><g><g><line x1="0" y1="0" x2="0" y2="178" fill="rgb(0, 0, 0)" stroke="rgb(60, 60, 60)" stroke-width="1px" opacity="0.25"></line><line x1="19.428571428571427" y1="0" x2="19.428571428571427" y2="178" fill="rgb(0, 0, 0)" stroke="rgb(60, 60, 60)" stroke-width="1px" opacity="0.25"></line><line x1="38.857142857142854" y1="0" x2="38.857142857142854" y2="178" fill="rgb(0, 0, 0)" stroke="rgb(60, 60, 60)" stroke-width="1px" opacity="0.25"></line><line x1="58.285714285714285" y1="0" x2="58.285714285714285" y2="178" fill="rgb(0, 0, 0)" stroke="rgb(60, 60, 60)" stroke-width="1px" opacity="0.25"></line><line x1="77.71428571428571" y1="0" x2="77.71428571428571" y2="178" fill="rgb(0, 0, 0)" stroke="rgb(60, 60, 60)" stroke-width="1px" opacity="0.25"></line><line x1="97.14285714285714" y1="0" x2="97.14285714285714" y2="178" fill="rgb(0, 0, 0)" stroke="rgb(60, 60, 60)" stroke-width="1px" opacity="0.25"></line><line x1="116.57142857142857" y1="0" x2="116.57142857142857" y2="178" fill="rgb(0, 0, 0)" stroke="rgb(60, 60, 60)" stroke-width="1px" opacity="0.25"></line><line x1="136" y1="0" x2="136" y2="178" fill="rgb(0, 0, 0)" stroke="rgb(60, 60, 60)" stroke-width="1px" opacity="0.25"></line><line x1="155.42857142857142" y1="0" x2="155.42857142857142" y2="178" fill="rgb(0, 0, 0)" stroke="rgb(60, 60, 60)" stroke-width="1px" opacity="0.25"></line><line x1="174.85714285714286" y1="0" x2="174.85714285714286" y2="178" fill="rgb(0, 0, 0)" stroke="rgb(60, 60, 60)" stroke-width="1px" opacity="0.25"></line><line x1="194.28571428571428" y1="0" x2="194.28571428571428" y2="178" fill="rgb(0, 0, 0)" stroke="rgb(60, 60, 60)" stroke-width="1px" opacity="0.25"></line><line x1="213.71428571428572" y1="0" x2="213.71428571428572" y2="178" fill="rgb(0, 0, 0)" stroke="rgb(60, 60, 60)" stroke-width="1px" opacity="0.25"></line><line x1="233.14285714285714" y1="0" x2="233.14285714285714" y2="178" fill="rgb(0, 0, 0)" stroke="rgb(60, 60, 60)" stroke-width="1px" opacity="0.25"></line><line x1="252.57142857142858" y1="0" x2="252.57142857142858" y2="178" fill="rgb(0, 0, 0)" stroke="rgb(60, 60, 60)" stroke-width="1px" opacity="0.25"></line><line x1="272" y1="0" x2="272" y2="178" fill="rgb(0, 0, 0)" stroke="rgb(60, 60, 60)" stroke-width="1px" opacity="0.25"></line></g><g><line x1="0" y1="178" x2="272" y2="178" fill="rgb(0, 0, 0)" stroke="rgb(60, 60, 60)" stroke-width="1px" opacity="0.25"></line><line x1="0" y1="160.2" x2="272" y2="160.2" fill="rgb(0, 0, 0)" stroke="rgb(60, 60, 60)" stroke-width="1px" opacity="0.25"></line><line x1="0" y1="142.40000000000003" x2="272" y2="142.40000000000003" fill="rgb(0, 0, 0)" stroke="rgb(60, 60, 60)" stroke-width="1px" opacity="0.25"></line><line x1="0" y1="124.6" x2="272" y2="124.6" fill="rgb(0, 0, 0)" stroke="rgb(60, 60, 60)" stroke-width="1px" opacity="0.25"></line><line x1="0" y1="106.8" x2="272" y2="106.8" fill="rgb(0, 0, 0)" stroke="rgb(60, 60, 60)" stroke-width="1px" opacity="0.25"></line><line x1="0" y1="89.00000000000001" x2="272" y2="89.00000000000001" fill="rgb(0, 0, 0)" stroke="rgb(60, 60, 60)" stroke-width="1px" opacity="0.25"></line><line x1="0" y1="71.2" x2="272" y2="71.2" fill="rgb(0, 0, 0)" stroke="rgb(60, 60, 60)" stroke-width="1px" opacity="0.25"></line><line x1="0" y1="53.400000000000034" x2="272" y2="53.400000000000034" fill="rgb(0, 0, 0)" stroke="rgb(60, 60, 60)" stroke-width="1px" opacity="0.25"></line><line x1="0" y1="35.60000000000002" x2="272" y2="35.60000000000002" fill="rgb(0, 0, 0)" stroke="rgb(60, 60, 60)" stroke-width="1px" opacity="0.25"></line><line x1="0" y1="17.80000000000001" x2="272" y2="17.80000000000001" fill="rgb(0, 0, 0)" stroke="rgb(60, 60, 60)" stroke-width="1px" opacity="0.25"></line><line x1="0" y1="0" x2="272" y2="0" fill="rgb(0, 0, 0)" stroke="rgb(60, 60, 60)" stroke-width="1px" opacity="0.25"></line></g></g></g><g><g><line x1="0" y1="391.59999999999997" x2="272" y2="391.59999999999997" fill="rgb(0, 0, 0)" stroke="rgb(153, 153, 153)" stroke-width="1.5px"></line></g></g><g><g><line x1="19.428571428571427" y1="0" x2="19.428571428571427" y2="178" fill="rgb(0, 0, 0)" stroke="rgb(153, 153, 153)" stroke-width="1.5px"></line></g></g><g><g><g><g><g><path stroke="rgb(255, 112, 67)" stroke-width="2px" d="M21.371817142857143,-2.1212972640990984L21.56610285714286,0.5300909042358626L21.76038857142857,4.004786109924339L21.954674285714283,1.182710266113304L22.148960000000002,0.05872640609743485L22.343245714285715,8.045356369018577L22.53753142857143,9.602085685730003L22.731817142857142,10.156332588195824L22.926102857142855,11.748837566375755L23.120388571428574,13.5988594055176L23.314674285714286,7.434751129150413L23.508960000000002,12.038395500183128L23.703245714285714,12.29434213638308L23.897531428571426,14.787264919281029L24.091817142857145,13.7290183067322L24.286102857142858,15.357553577423118L24.48038857142857,14.778183078765892L24.868959999999998,21.924233531951927L25.646102857142857,19.881710624694847L25.84038857142857,28.631512260437034L26.034674285714285,22.812386608123802L26.22896,26.753183937072777L26.423245714285713,26.18964300155642L26.811817142857144,20.85117588043215L27.006102857142857,28.255549526214622L27.200388571428572,20.978406524658226L27.394674285714284,22.531910514831566L27.58896,28.98748645782473L27.977531428571428,25.002171134948753L28.171817142857144,23.52259502410891L28.366102857142856,29.951646900177025L28.560388571428568,25.58243284225466L28.754674285714287,25.313160514831566L28.94896,27.14136896133425L29.337531428571427,29.909335708618187L29.531817142857143,25.178163623809837L29.92038857142857,27.315918540954613L30.114674285714287,25.865752315521263L30.30896,27.916508293151878L30.503245714285715,38.20981965065005L30.69753142857143,31.14480552673342L30.891817142857143,27.768652534484886L31.474674285714286,34.304225063324L31.668960000000002,32.08503065109255L31.863245714285714,33.874110794067406L32.05753142857143,32.23556003570559L32.25181714285714,30.84506235122683L32.446102857142854,36.25514445304873L32.64038857142857,35.3608165740967L32.834674285714286,32.71592149734499L33.02896,37.87629542350771L33.22324571428572,38.07125792503359L33.41753142857143,33.84351263046267L33.80610285714286,35.48087511062624L34.00038857142857,37.13400349617007L34.194674285714285,38.42946014404299L34.38896,40.3783000469208L34.58324571428571,30.164009189605736L34.77753142857143,38.9329293727875L34.97181714285715,36.383032894134544L35.16610285714285,40.56802139282229L35.36038857142857,36.78216705322268L35.74896,36.93068060874941L35.943245714285716,37.37948904037478L36.33181714285714,39.88266072273257L36.52610285714286,35.650119876861595L36.72038857142857,45.031066989898704L37.108959999999996,46.74382147789004L37.303245714285715,38.68945965766909L37.497531428571435,35.80654821395876L37.88610285714286,37.92737016677859L38.08038857142857,43.3020585536957L38.27467428571428,42.293846940994285L38.46896,45.77696619033816L38.663245714285715,43.87593326568606L38.85753142857143,40.034590578079246L39.05181714285714,47.51272234916689L39.44038857142857,44.93789324760439L39.63467428571428,39.48925576210024L39.82896,44.16674313545229L40.02324571428572,46.11055407524111L40.21753142857143,45.82625851631167L40.411817142857146,47.82468781471255L40.60610285714286,34.818452453613304L40.80038857142857,46.76724753379824L41.18896,36.904177761077904L41.383245714285714,46.2799261569977L41.577531428571426,42.45532546043398L41.771817142857145,41.26989064216616L41.96610285714286,44.71487889289858L42.16038857142857,47.61794862747195L42.35467428571429,48.177373027801536L42.54896,44.836125707626366L42.93753142857143,47.633077955245994L43.131817142857145,46.89019188880923L43.32610285714286,56.0727602005005L43.52038857142857,51.19606647491456L43.71467428571429,54.26630148887635L43.90896,52.31115946769715L44.10324571428571,49.746388292312645L44.29753142857143,46.72811923027041L44.49181714285714,44.96399292945864L44.686102857142856,51.32872924804688L44.880388571428576,50.537102556228646L45.07467428571429,47.75409135818484L45.46324571428571,44.71262965202334L45.65753142857143,47.953467464447044L46.240388571428575,47.95013604164126L46.43467428571428,50.48464856147767L46.82324571428572,53.89443407058717L47.017531428571424,42.34562191963198L47.406102857142855,48.42423782348635L47.79467428571429,51.34267029762269L47.98896,53.11208019256593L48.18324571428572,47.328496789932274L48.37753142857143,49.02607951164248L48.76610285714286,49.42228541374209L48.96038857142857,55.598828172683724L49.348960000000005,53.87332091331483L49.54324571428571,57.08443055152894L49.73753142857143,56.9004596233368L49.93181714285714,50.83973155021668L50.32038857142857,55.04899487495423L50.514674285714285,54.251638984680184L50.708960000000005,49.46589097976687L50.90324571428571,50.36151323318482L51.09753142857143,57.956860160827645L51.29181714285715,53.453434324264535L51.48610285714285,54.04736123085023L51.874674285714285,53.01716647148133L52.06896,53.26695952415467L52.45753142857143,53.14522466659547L52.65181714285714,52.421626901626595L53.04038857142857,56.316420888900765L53.23467428571429,55.354403591156014L53.42896,52.1180642604828L53.81753142857143,55.833407020568856L54.01181714285714,59.32789978981019L54.20610285714286,56.06851634979249L54.78896,55.572261667251595L54.983245714285715,52.80872974395753L55.17753142857143,57.76962146759034L55.37181714285714,59.25774893760682L55.76038857142858,54.58172569274903L55.95467428571428,51.89681110382081L56.14896,62.698981380462655L56.343245714285715,58.48072109222413L56.53753142857143,54.33751330375672L56.731817142857146,52.18059740066529L56.92610285714286,59.694865560531625L57.12038857142857,56.36643466949464L57.31467428571428,60.01635847091676L57.703245714285714,61.93133244514466L57.897531428571426,56.35875329971314L58.48038857142857,50.933754062652596L59.257531428571426,62.156065559387216L59.451817142857145,54.626561975479135L59.64610285714286,54.96568808555604L59.84038857142857,53.66165885925294L60.03467428571429,57.90351495742799L60.42324571428571,65.5346799850464L60.811817142857144,65.6009264945984L61.00610285714286,57.05069193840028L61.200388571428576,59.33509311676026L61.39467428571429,64.34818420410157L61.58896,64.48852834701539L62.17181714285714,60.44053134918214L62.366102857142856,59.08462104797364L62.560388571428575,62.81681189537049L62.75467428571428,60.64122304916383L62.94896,50.33401308059693L63.14324571428572,60.97922453880311L63.337531428571424,63.231054162979135L63.53181714285714,61.80000648498536L63.726102857142855,64.04852590560914L63.920388571428575,58.152098512649545L64.11467428571429,58.195003843307504L64.30896,61.97990331649781L64.69753142857142,58.76217327117921L64.89181714285715,65.296515083313L65.08610285714286,58.31680235862733L65.47467428571429,65.88965687751771L65.66896,56.22203764915467L65.86324571428571,56.869797801971444L66.25181714285715,65.76607594490052L66.44610285714286,64.53873310089112L66.64038857142857,68.41888580322266L66.83467428571429,64.21628532409669L67.22324571428571,57.402910327911385L67.41753142857142,65.08436498641969L67.80610285714286,62.83817968368531L68.00038857142857,63.965091800689706L68.19467428571429,59.10127816200257L68.58324571428571,59.662081813812264L68.77753142857144,69.51150760650636L68.97181714285715,61.60018477439881L69.16610285714286,61.25825772285462L69.36038857142856,66.8711958885193L69.55467428571428,64.8207157611847L69.74896,66.56839714050294L69.94324571428571,66.66674838066102L70.13753142857144,69.75368294715882L70.33181714285715,65.05149636268617L70.52610285714286,62.15922722816468L70.72038857142857,72.45249614715577L70.91467428571428,68.05064687728883L71.30324571428571,67.90342769622804L71.49753142857143,64.070445394516L71.69181714285715,64.30801615715028L72.08038857142857,68.51677021980286L72.46896,62.464975452423104L72.66324571428572,66.07205758094788L72.85753142857143,71.3409679889679L73.24610285714286,63.17284975051881L73.63467428571428,64.45107636451722L74.02324571428572,66.93799409866334L74.21753142857143,64.90253720283509L74.41181714285713,71.8373287677765L74.60610285714286,63.622379636764535L74.80038857142857,67.47520194053651L75.18896000000001,66.29706654548646L75.38324571428572,72.02847180366517L75.57753142857143,70.00494012832642L75.77181714285713,67.57660875320435L75.96610285714286,66.33405170440675L76.16038857142857,71.6937592983246L76.35467428571428,71.68635377883912L76.54896000000001,66.06707105636598L77.52038857142857,68.81827459335328L78.10324571428572,67.56504426002503L78.29753142857142,71.25038299560548L78.68610285714286,64.36114916801453L78.88038857142857,70.8726378440857L79.0746742857143,66.91775093078614L79.26896,67.10838470458985L79.4632457142857,69.47110614776612L79.65753142857142,74.410035943985L79.85181714285714,67.09766898155213L80.04610285714286,66.15498242378236L80.24038857142857,72.60194334983827L80.4346742857143,66.57079491615296L80.62896,70.0671974182129L81.21181714285714,66.55914554595948L81.40610285714286,67.73046956062318L81.60038857142858,68.65751752853394L81.7946742857143,69.09285173416139L81.98895999999999,70.31970653533936L82.37753142857143,70.26880154609681L82.57181714285714,69.84335551261903L82.76610285714285,68.41712460517884L82.96038857142858,64.7731209754944L83.1546742857143,73.02289090156556L83.34895999999999,74.62708768844605L83.73753142857143,73.18748865127564L83.93181714285714,75.87233958244325L84.12610285714285,71.0881193637848L84.32038857142858,70.04360160827638L84.51467428571428,69.42232308387757L84.70895999999999,69.80178699493409L84.90324571428572,71.63559732437135L85.09753142857143,75.54776988029481L85.29181714285714,70.98030433654786L85.48610285714287,67.41067419052125L85.87467428571428,76.1547890663147L86.06896,75.27983436584474L86.45753142857143,69.24866471290589L86.84610285714287,77.65322909355164L87.23467428571428,74.58993277549745L87.42896,72.515687084198L87.62324571428572,76.82724843025208L87.81753142857143,68.82124528884889L88.01181714285715,66.6103476047516L88.20610285714285,76.06369481086732L88.40038857142856,75.22440967559815L88.59467428571428,70.09022030830384L88.78896,75.19408736228944L88.98324571428572,78.65437469482423L89.17753142857143,71.62532720565797L89.56610285714285,81.98511848449708L89.76038857142856,92.05426964759828L89.95467428571429,90.60590705871583L90.14896,88.57547912597657L90.34324571428571,93.59693059921266L90.53753142857144,91.70546755790711L90.73181714285714,86.45191988945008L90.92610285714285,91.78039274215699L91.12038857142856,95.31057629585267L91.31467428571429,88.13596472740174L91.50896,88.2739959716797L91.70324571428571,94.41308674812318L91.89753142857144,88.29544863700868L92.09181714285714,90.20745191574098L92.28610285714285,85.80398998260499L92.48038857142856,94.94853339195252L92.67467428571429,90.30813727378846L92.86896,92.95888886451722L93.06324571428571,91.47924909591676L93.25753142857143,94.87371430397035L93.45181714285714,91.58670339584351L93.84038857142858,88.905077791214L94.03467428571429,94.55563769340516L94.42324571428573,91.02545413970948L94.61753142857143,85.65303621292115L94.81181714285714,89.78035078048707L95.00610285714285,95.07720694541932L95.39467428571429,93.07413063049317L95.58896,88.58375463485719L95.78324571428571,99.62918243408204L96.17181714285714,93.69067726135255L96.36610285714286,91.42891702651978L96.75467428571429,97.78798780441285L96.94896,91.8604742050171L97.14324571428571,98.04959998130799L97.33753142857142,92.99317917823792L97.53181714285714,102.2353099346161L97.92038857142857,98.86688075065614L98.11467428571429,90.63385281562806L98.30896,96.78310761451722L98.50324571428571,96.84262762069703L98.89181714285715,93.06893191337586L99.08610285714286,97.36396346092225L99.28038857142857,97.47273335456849L99.47467428571429,96.84799609184266L99.66896,95.33546648025514L100.05753142857142,95.73336992263795L100.25181714285715,95.58689341545106L100.44610285714286,94.03186163902284L100.83467428571427,90.8269904613495L101.22324571428571,95.9267834186554L101.61181714285715,96.9050971031189L102.00038857142857,96.89315066337586L102.19467428571429,98.7090943813324L102.38896,97.2629810333252L102.77753142857144,92.6310938358307L102.97181714285715,100.19773111343385L103.16610285714286,93.5121596813202L103.55467428571428,97.99347505569459L103.74896,99.54666075706483L103.94324571428571,93.63504037857057L104.13753142857144,95.72210249900819L104.33181714285715,90.59056553840638L104.52610285714286,94.14646682739259L104.72038857142857,96.23853669166566L105.10896,104.57167706489564L105.49753142857143,98.5410378932953L105.88610285714284,95.62358150482179L106.27467428571428,97.15138897895814L107.05181714285715,94.26429734230042L107.24610285714286,98.83462748527528L107.63467428571428,98.52584490776063L107.82896,97.96816048622132L108.02324571428572,99.98144326210023L108.21753142857143,98.03120288848878L108.41181714285713,99.00172910690308L108.80038857142857,99.84029278755189L108.99467428571428,94.04204688072205L109.18896000000001,97.262344455719L109.38324571428572,98.31632599830628L109.57753142857143,95.91797742843629L109.77181714285713,91.59635815620423L109.96610285714286,102.225718832016L110.16038857142857,100.56800708770753L110.35467428571428,99.32757196426392L110.54896000000001,95.28012666702271L110.74324571428572,98.13401017189027L110.93753142857142,101.84574565887452L111.32610285714286,89.54050955772401L111.52038857142857,95.51462063789369L111.7146742857143,95.72838339805604L111.90896000000001,96.58744487762452L112.10324571428572,101.25298581123353L112.29753142857142,100.87761721611024L112.49181714285714,96.66118178367616L112.88038857142857,100.07552943229676L113.0746742857143,104.88139328956605L113.26896,95.4651797771454L113.4632457142857,101.48141107559205L113.65753142857142,98.91717038154603L113.85181714285714,101.92069206237794L114.04610285714286,95.82140860557557L114.24038857142857,91.58814630508424L114.4346742857143,94.60030422210694L114.62896,99.26047668457032L114.8232457142857,97.04236445426942L115.01753142857143,101.47476944923402L115.40610285714286,103.06975708007813L115.60038857142858,95.38656244277955L116.1832457142857,97.83286652565003L116.37753142857143,94.54021129608155L116.57181714285714,98.5124767780304L116.76610285714285,95.43636403083802L116.96038857142858,95.356325006485L117.1546742857143,93.54971776008607L117.34895999999999,100.23775062561036L117.54324571428572,103.98165450096131L117.73753142857143,97.16991338729859L118.12610285714285,99.29402432441712L118.32038857142858,97.39252457618714L118.70895999999999,112.91120443344117L119.29181714285714,112.96429500579835L119.48610285714287,109.1255835056305L119.87467428571428,109.53931651115418L120.45753142857143,111.1750026702881L120.65181714285714,109.05995235443116L120.84610285714287,111.44204697608949L121.04038857142857,108.41641483306886L121.23467428571428,113.66520938873292L121.42896,112.95761094093324L121.62324571428572,113.85741338729859L121.81753142857143,106.973929977417L122.01181714285715,107.41503582000733L122.20610285714285,115.57025275230407L122.40038857142856,113.80145821571351L122.78896,111.7183216571808L122.98324571428572,114.84582743644714L123.17753142857143,108.28226671218873L123.37181714285715,114.51143321990966L123.56610285714285,103.2168065071106L123.76038857142856,113.51782045364381L123.95467428571429,107.56492862701417L124.53753142857144,112.5463393688202L124.73181714285714,112.51614437103272L124.92610285714285,113.4889834880829L125.12038857142856,117.08157286643981L126.28610285714285,112.49984798431397L126.67467428571429,117.15467319488525L126.86896,117.23840436935424L127.06324571428571,112.2752634048462L127.25753142857143,116.03629121780395L127.45181714285714,113.58343038558961L127.64610285714285,106.6801706314087L127.84038857142858,112.82131967544557L128.0346742857143,114.6192482471466L128.22896,110.66421279907227L128.4232457142857,113.81467781066895L128.61753142857143,113.33501658439637L128.81181714285714,119.35196933746337L129.00610285714285,111.24712691307069L129.20038857142856,115.11927995681762L129.3946742857143,114.07244930267333L129.58896000000001,111.50674448013307L129.7832457142857,114.55334124565124L130.36610285714286,121.62968645095825L130.56038857142858,118.45976338386535L130.7546742857143,117.35237298011779L131.1432457142857,113.90560231208802L131.33753142857142,119.40039167404174L131.53181714285714,118.93541417121887L131.72610285714285,115.3036964893341L131.9203885714286,109.68097624778748L132.1146742857143,116.98311553001403L132.30895999999998,112.87143955230714L132.5032457142857,112.72311697006226L132.69753142857144,114.75865874290466L132.89181714285715,115.70809302330017L133.08610285714286,110.30414328575135L133.28038857142857,118.47170982360839L133.4746742857143,112.49428853988648L133.66896,113.60995445251466L133.8632457142857,115.07094249725341L134.05753142857142,114.51484951972961L134.25181714285713,118.13459954261779L134.44610285714285,118.603990650177L134.6403885714286,113.62565670013429L134.83467428571427,112.44773349761964L135.22324571428572,115.76546988487243L135.41753142857144,115.73349246978759L135.61181714285715,117.05670390129089L135.80610285714286,112.2898410320282L136.19467428571429,110.66866884231568L136.38896,115.35447416305541L136.5832457142857,109.84824762344361L136.77753142857142,114.43983945846557L136.97181714285713,118.71929607391357L137.16610285714285,120.77331981658935L137.3603885714286,116.87226614952087L137.55467428571427,117.12201676368713L137.74896,117.99434027671813L137.94324571428572,117.27248249053955L138.33181714285715,118.715816116333L138.52610285714286,112.02950201034547L138.72038857142857,114.93709144592285L139.10896000000002,121.59136447906494L139.3032457142857,119.63660440444946L139.49753142857142,114.12242064476013L139.69181714285716,111.0469656944275L139.88610285714284,120.40648136138915L140.08038857142859,114.12394843101501L140.2746742857143,110.11403999328614L140.46895999999998,119.02485332489013L140.66324571428572,114.01131663322448L140.8575314285714,114.62835130691528L141.05181714285715,118.62024459838867L141.24610285714286,114.47803411483764L141.63467428571428,112.5477186203003L142.21753142857142,113.44401988983155L142.41181714285716,118.6952546596527L142.60610285714284,115.76861033439636L143.18895999999998,117.87854681015014L143.96610285714286,117.08921179771423L144.1603885714286,115.97375807762145L144.35467428571428,113.99924287796021L144.54896,118.19288883209228L144.7432457142857,117.16203627586364L144.93753142857142,119.51724610328674L145.13181714285716,115.19757900238037L145.32610285714284,116.32181749343872L145.90895999999998,113.13370952606202L146.10324571428572,112.111132478714L146.29753142857143,117.5112627506256L146.49181714285714,117.2175034046173L146.88038857142857,113.81283173561097L147.07467428571428,117.57462344169616L147.26896,116.92306504249572L147.85181714285716,128.72531995773315L148.04610285714287,124.74159607887267L148.24038857142855,126.47627005577087L148.4346742857143,118.21052203178405L148.62896,123.49483761787414L148.82324571428572,130.88053832054138L149.01753142857143,125.70125803947448L149.21181714285717,124.82452092170715L149.40610285714286,124.10955939292907L149.60038857142857,126.72994623184204L149.79467428571428,119.90676794052123L149.98896,121.59596905708312L150.18324571428573,120.99856219291686L150.37753142857142,130.83358011245727L150.57181714285713,124.86388263702392L150.76610285714287,125.23125157356262L151.34896,133.279226398468L151.54324571428572,128.52458581924438L151.73753142857143,128.39408740997314L151.93181714285714,119.618079996109L152.12610285714285,129.3030141353607L152.32038857142857,128.1605058670044L152.5146742857143,121.90451822280883L152.70896,130.0197368621826L152.90324571428573,123.2455750465393L153.09753142857141,127.95421228408813L153.29181714285713,127.59471569061279L153.68038857142855,136.19585523605346L153.8746742857143,130.03804907798767L154.06896,129.3092101573944L154.45753142857143,124.48713479042053L154.65181714285714,125.91907367706298L154.84610285714285,126.66391191482543L155.04038857142857,127.80162463188171L155.2346742857143,130.28107318878173L155.42896,128.78590092658996L155.6232457142857,129.58289608955383L155.81753142857144,125.53500518798828L156.01181714285713,122.91156277656555L156.20610285714287,127.0170639514923L156.40038857142858,126.63535079956054L156.5946742857143,124.17092547416686L156.78896,127.9811182975769L156.98324571428572,132.10395560264587L157.17753142857143,118.52083239555358L157.37181714285714,129.15278182029724L157.56610285714288,123.71424469947814L157.76038857142856,127.13718614578247L157.9546742857143,125.23413739204406L158.14896,131.52320585250854L158.53753142857144,126.9380434513092L158.92610285714287,133.14819750785827L159.50896,130.6406334400177L160.09181714285714,123.43637857437133L160.28610285714288,134.6753047466278L160.48038857142856,123.71997389793395L160.67467428571427,127.0920527935028L160.86896000000002,129.62412509918212L161.0632457142857,124.60163388252258L161.25753142857144,126.85021696090698L161.45181714285712,130.77728543281555L161.64610285714286,133.62456974983215L161.84038857142858,131.40726385116577L162.03467428571426,133.18866262435913L162.22896,130.9205153942108L162.4232457142857,122.3881474494934L163.00610285714288,123.61867318153381L163.20038857142856,129.56802139282226L163.39467428571427,133.3561674118042L163.7832457142857,122.38950548171997L163.97753142857144,131.40681824684142L164.17181714285715,129.99157891273498L164.36610285714286,131.35135111808776L164.56038857142858,122.18830451965331L164.7546742857143,128.85028014183044L164.94896,129.63571081161498L165.33753142857145,128.10573897361755L165.53181714285714,136.05712375640869L165.9203885714286,126.07989439964294L166.11467428571427,130.59560618400573L166.30896,129.27504715919494L166.5032457142857,127.83285937309265L166.69753142857144,132.95735154151916L167.08610285714283,128.8414104938507L167.28038857142857,135.40974555015563L167.4746742857143,129.78730115890502L167.66896,132.17544326782226L167.8632457142857,125.43818173408508L168.05753142857145,123.54374799728393L168.25181714285713,129.034739112854L168.44610285714285,132.1177481174469L168.6403885714286,125.52002439498901L168.83467428571427,126.6879533290863L169.02896,124.30577383041381L169.22324571428572,127.79778394699096L169.41753142857144,129.95631251335143L169.61181714285715,128.8654094696045L170.00038857142857,131.52320585250854L170.19467428571429,134.8966215610504L170.38896,132.6935537815094L170.5832457142857,130.24135074615478L170.77753142857142,129.1593385696411L171.16610285714285,139.50035080909728L171.3603885714286,136.248606300354L171.55467428571427,130.8763156890869L172.1375314285714,136.96240077018737L172.33181714285715,136.25382623672485L172.72038857142857,132.45568594932556L172.91467428571428,134.38818702697753L173.10896000000002,133.9641414642334L173.3032457142857,136.19483671188354L173.49753142857142,136.58213052749633L173.69181714285716,134.14908847808837L174.08038857142859,132.39584765434265L174.2746742857143,130.40696702003478L174.46895999999998,141.80894193649291L174.66324571428572,136.31215796470642L174.8575314285714,134.07609424591064L175.05181714285715,130.89490375518798L175.24610285714286,135.24924311637878L175.44038857142857,138.30303320884704L175.82896,134.94718704223632L176.0232457142857,129.30235633850097L176.21753142857142,135.19825325012206L176.41181714285716,135.8626917362213L176.60610285714284,136.78375587463378L176.9946742857143,134.9454258441925L177.18895999999998,133.34114418029785L177.38324571428572,136.0419732093811L177.57753142857143,132.8865641117096L177.77181714285715,138.33781156539916L177.96610285714286,136.99009189605712L178.1603885714286,131.93254647254943L178.35467428571428,136.46852264404296L178.54896,134.39811763763427L178.7432457142857,133.37051162719726L178.93753142857142,134.5414324760437L179.13181714285716,134.54728899002075L179.32610285714284,133.8892587184906L179.52038857142855,136.31638059616088L179.7146742857143,140.39760694503784L179.90895999999998,133.60874018669128L180.10324571428572,142.03889498710632L180.29753142857143,132.09949955940246L180.68610285714286,133.95813641548156L180.88038857142857,139.73091921806335L181.07467428571428,131.111403799057L181.26896,135.68056688308715L181.46324571428573,131.7139245033264L181.65753142857142,140.7304097175598L181.85181714285716,143.1512294769287L182.04610285714287,144.19767818450927L182.4346742857143,134.2463575363159L182.82324571428572,134.50684509277343L183.01753142857143,134.10200295448303L183.21181714285717,141.1328540802002L183.40610285714286,135.6440273284912L183.60038857142857,136.42578706741332L183.98896,133.5476923942566L184.18324571428573,139.7869168281555L184.37753142857142,136.58643803596496L184.57181714285713,134.73703155517578L184.96038857142855,139.74893436431884L185.1546742857143,139.99469575881957L185.34896,135.28107199668884L185.54324571428572,132.70255074501037L185.93181714285714,137.32675657272338L186.12610285714285,136.1379478931427L186.32038857142857,140.31376967430114L186.5146742857143,135.6882694721222L186.70896,132.52394828796386L186.90324571428573,137.93335137367248L187.09753142857141,134.94877848625183L187.29181714285713,135.69170699119567L187.48610285714287,134.71071968078613L187.68038857142855,138.71042165756225L187.8746742857143,138.7261875629425L188.06896,134.96530828475952L188.26324571428572,134.483291721344L188.84610285714285,143.10127935409545L189.04038857142857,138.40649828910827L189.42896,143.94185886383056L189.6232457142857,135.29547986984252L189.81753142857144,133.35317549705505L190.01181714285713,134.72058663368225L190.40038857142858,140.13858351707458L190.5946742857143,135.52995262145996L190.78896,135.80919799804687L190.98324571428572,137.46081981658935L191.37181714285714,136.4728301525116L191.76038857142856,136.3627658843994L192.14896,141.28049764633178L192.3432457142857,141.24888095855712L192.53753142857144,137.96344027519226L192.73181714285712,131.6633590221405L192.92610285714287,140.17268285751342L193.7032457142857,137.81117091178893L193.89753142857143,143.17675623893737L194.09181714285714,133.08209953308105L194.28649142857142,138.47802839279174L194.48077714285714,136.48456439971923L194.8693485714286,134.65588912963867L195.06363428571427,138.6663068294525L195.25792,134.97559962272643L195.45220571428572,140.10681829452514L195.6464914285714,131.8004141807556L195.84077714285715,137.08088908195495L196.03506285714286,135.54991993904113L196.22934857142857,136.67986640930175L196.4236342857143,134.16597900390624L196.61792,139.5122760295868L197.00649142857142,139.35209188461303L197.20077714285716,135.64309368133544L197.39506285714285,139.44611439704894L197.5893485714286,139.2768696308136L197.7836342857143,138.51202163696288L197.97791999999998,133.9840663433075L198.17220571428572,136.64080176353454L198.3664914285714,135.3027792930603L198.56077714285715,134.38744435310363L198.75506285714286,144.96445713043212L198.94934857142857,137.27650938034057L199.14363428571428,136.68133053779601L199.33792,140.74401125907897L199.5322057142857,135.3158715724945L199.92077714285716,140.69276676177978L200.11506285714285,134.69622693061828L200.3093485714286,141.45105800628662L200.69791999999998,136.96772680282592L200.89220571428572,134.6226809978485L201.08649142857143,139.30388174057006L201.28077714285715,133.4065631389618L201.47506285714286,141.94357810020446L201.66934857142854,136.40062103271484L201.86363428571428,135.29651961326599L202.05792,136.99726400375366L202.2522057142857,137.71661791801452L202.44649142857142,138.95775327682495L202.64077714285716,138.28177151679992L202.83506285714284,138.55446014404296L203.2236342857143,139.65015873908996L203.41791999999998,137.23252186775207L203.61220571428572,139.20171103477477L203.80649142857143,137.09903154373168L204.19506285714286,142.31548795700073L204.38934857142857,137.86825070381164L204.58363428571428,141.24062666893005L204.77792,137.60479245185851L204.97220571428574,135.95234308242797L205.16649142857142,139.88518319129943L205.74934857142856,135.8374620437622L205.9436342857143,138.78838119506835L206.33220571428572,145.4930287361145L206.52649142857143,138.30706486701965L206.72077714285712,139.62117323875427L206.91506285714286,137.3573971748352L207.10934857142857,134.81465158462524L207.30363428571428,136.66603145599365L207.69220571428573,141.8858829498291L208.08077714285713,139.52326760292053L208.46934857142855,136.32393465042114L208.6636342857143,142.23617038726806L208.85792,141.4958306312561L209.05220571428572,137.15184626579284L209.24649142857143,138.7119918823242L209.63506285714286,140.32140860557556L209.82934857142857,138.54826412200927L210.0236342857143,138.51009068489074L210.4122057142857,130.84813652038574L210.60649142857142,140.4466658592224L210.80077714285713,141.24111471176147L210.99506285714287,134.40026078224182L211.57792,136.97528085708618L211.7722057142857,140.7099543571472L211.96649142857143,136.62469635009765L212.16077714285714,143.85258946418762L212.35506285714285,139.21970496177673L212.54934857142857,147.1985050201416L212.7436342857143,139.52154884338378L212.93792,134.85046968460082L213.1322057142857,140.8087299823761L213.32649142857144,137.27254137992858L213.52077714285713,137.4588888645172L213.71506285714287,146.04084620475768L214.1036342857143,139.79309163093566L214.49220571428572,134.93441305160522L214.68649142857143,134.1580005645752L215.07506285714288,135.04920921325683L215.26934857142857,135.89800057411193L215.46363428571428,138.23415551185607L215.65792,140.67186579704284L215.8522057142857,140.01338992118835L216.04649142857144,136.38209662437438L216.24077714285713,138.50136957168579L216.43506285714287,138.35693011283874L216.62934857142858,141.31001362800598L216.82363428571426,136.94302759170532L217.01792,136.702783203125L217.40649142857143,135.5798390865326L217.79506285714288,143.32503638267517L217.98934857142856,143.28342542648315L218.18363428571428,141.94506344795226L218.37792000000002,144.38983974456787L218.5722057142857,141.35792670249938L218.76649142857144,132.00257000923156L219.15506285714287,138.82362637519836L219.54363428571426,144.39480504989623L219.73792,140.43730816841125L220.12649142857143,137.5796051979065L220.32077714285714,144.20334372520446L220.51506285714285,136.61531744003295L220.70934857142856,140.02716121673583L220.90363428571428,133.41057357788085L221.09792000000002,138.85012922286987L221.2922057142857,142.44464955329894L221.68077714285715,142.00585660934448L221.87506285714284,138.48456392288207L222.06934857142858,133.67592034339904L222.45792,138.469158744812L222.6522057142857,137.10807094573974L222.84649142857145,138.774143075943L223.23506285714285,148.08387837409973L223.62363428571427,140.05039629936218L223.81792000000002,139.5913601875305L224.0122057142857,141.20094666481017L224.20649142857144,140.4933482170105L224.40077714285715,143.16909608840942L224.59506285714284,146.3487587928772L224.78934857142858,142.48498735427856L224.9836342857143,139.67857131958007L225.17792,143.3620003223419L225.3722057142857,145.1957682132721L225.56649142857142,143.38126740455627L225.76077714285714,146.05975255966186L226.1493485714286,140.92914924621581L226.34363428571427,144.8975103855133L226.53792,143.49767622947692L226.73220571428573,138.43817863464355L226.9264914285714,142.66666660308837L227.12077714285715,138.75695548057556L227.31506285714283,140.35075483322143L227.50934857142857,141.34088764190673L227.7036342857143,142.16217885017394L227.89792,142.65764842033386L228.0922057142857,144.16009888648986L228.28649142857142,147.07933769226074L228.48077714285714,148.8834198474884L228.67506285714285,141.66745195388793L229.06363428571427,139.59942350387573L229.25792,145.05852208137512L229.45220571428572,141.2996374130249L229.84077714285715,144.53769550323486L230.03506285714286,144.20255861282348L230.22934857142857,143.37751159667968L230.4236342857143,143.97984132766723L230.61792,146.67031536102294L230.8122057142857,144.17998132705688L231.20077714285716,143.66955218315124L231.39506285714285,142.96320567131042L231.5893485714286,144.3546157836914L231.7836342857143,140.97025094032287L231.97791999999998,138.51834497451782L232.75506285714286,141.12945899963378L232.94934857142857,145.13221654891967L233.14363428571428,138.51159725189208L233.33792,147.10323057174682L233.5322057142857,144.05270824432372L233.72649142857142,141.7868951320648L233.92077714285716,144.04973754882812L234.11506285714285,147.3918336391449L234.3093485714286,142.33469138145446L234.5036342857143,147.73463068008422L234.89220571428572,147.82018671035766L235.08649142857143,145.57113680839538L235.28077714285715,141.46633586883544L235.47506285714286,142.88161764144897L235.66934857142854,144.64003596305847L235.86363428571428,148.01328191757202L236.05792,141.80242762565612L236.2522057142857,142.8931821346283L236.44649142857142,143.4594603538513L236.64077714285716,148.3603440284729L236.83506285714284,142.13075313568115L237.02934857142856,146.00477347373962L237.2236342857143,142.62722001075744L237.41791999999998,139.204745388031L237.61220571428572,145.75179753303527L238.00077714285715,147.99280533790588L238.38934857142857,142.7209030151367L238.58363428571428,142.11702427864074L238.77792,142.78451833724975L238.97220571428574,145.3525360584259L239.16649142857142,145.60822806358337L239.55506285714287,144.55798110961913L239.9436342857143,143.17930254936218L240.13792,143.25490674972534L240.33220571428572,143.94964632987976L240.72077714285712,144.70295104980468L241.10934857142857,145.51261410713195L241.30363428571428,144.102934217453L241.49792,146.68130693435668L241.69220571428573,149.54367814064025L241.88649142857142,147.24565420150756L242.27506285714287,147.31103072166442L242.46934857142855,148.44008598327636L242.6636342857143,146.387611246109L242.85792,142.9318223953247L243.24649142857143,146.03042755126953L243.44077714285714,143.66980681419372L243.63506285714286,144.3857232093811L244.21792,143.5556472301483L244.4122057142857,144.4603937625885L244.60649142857142,140.3580542564392L244.80077714285713,142.09487137794494L244.99506285714287,144.79101095199584L245.18934857142855,145.86419591903686L245.3836342857143,142.20336542129516L245.57792,141.66210470199584L245.7722057142857,138.67952642440795L245.96649142857143,144.09223971366882L246.16077714285714,145.71515188217163L246.54934857142857,145.13701210021972L246.7436342857143,145.0113516807556L247.1322057142857,150.12304863929748L247.32649142857144,147.05661187171935L247.52077714285713,150.67829284667968L247.90934857142858,145.52004084587097L248.1036342857143,140.25138506889343L248.29792,144.7500153541565L248.49220571428572,142.57419309616088L248.68649142857143,146.62435445785522L248.88077714285714,140.12604293823242L249.07506285714288,145.21159777641296L249.26934857142857,140.69979033470153L249.46363428571428,144.33846793174743L249.65792,149.39872941970825L249.8522057142857,145.45165119171142L250.24077714285713,146.63349995613098L250.43506285714287,141.251469707489L250.62934857142858,148.96933660507202L250.82363428571426,145.15031657218933L251.01792,144.98497614860534L251.21220571428572,140.4916082382202L251.40649142857143,148.11723504066467L251.60077714285714,146.49655089378356L251.79506285714288,141.5902775287628L251.98934857142856,142.26606831550598L252.37792000000002,146.46648321151733L252.5722057142857,143.3380862236023L252.76649142857144,143.8027666568756L252.96077714285713,140.5422161579132L253.34934857142858,149.47927770614623L253.54363428571426,149.65641603469848L253.73792,139.37880692481994L253.93220571428571,148.2823420524597L254.12649142857143,146.74286398887634L254.32077714285714,147.1717899799347L254.51506285714285,143.66617832183837L255.2922057142857,139.52774486541747L255.48649142857144,149.60069427490234L255.68077714285715,152.58136281967163L255.87506285714284,143.3048144340515L256.26363428571426,145.15893158912658L256.45792,146.98764929771423L256.6522057142857,148.58310375213622L256.8464914285714,146.15110144615173L257.04077714285717,145.58770904541015L257.4293485714286,146.56001768112182L257.6236342857143,148.48099670410156L257.81792,152.88795981407165L258.20649142857144,143.84098253250122L258.4007771428571,142.12360224723815L258.59506285714286,144.96138033866882L258.7893485714286,147.31597480773925L258.9836342857143,146.62777075767517L259.17792000000003,150.56336936950683L259.3722057142857,145.37736258506774L259.5664914285714,156.66078553199767" style="fill: none;" fill="none"></path></g></g></g></g></g></g><g transform="translate(58, 178)" clip-path="url(#clip_1)"><clipPath id="clip_1"><rect width="272" height="22"></rect></clipPath><g><g><line x1="0" y1="0" x2="0" y2="5" style="visibility: inherit;" fill="rgb(0, 0, 0)" stroke="rgb(204, 204, 204)" stroke-width="1px"></line><line x1="19.428571428571427" y1="0" x2="19.428571428571427" y2="5" style="visibility: inherit;" fill="rgb(0, 0, 0)" stroke="rgb(204, 204, 204)" stroke-width="1px"></line><line x1="38.857142857142854" y1="0" x2="38.857142857142854" y2="5" style="visibility: inherit;" fill="rgb(0, 0, 0)" stroke="rgb(204, 204, 204)" stroke-width="1px"></line><line x1="58.285714285714285" y1="0" x2="58.285714285714285" y2="5" style="visibility: inherit;" fill="rgb(0, 0, 0)" stroke="rgb(204, 204, 204)" stroke-width="1px"></line><line x1="77.71428571428571" y1="0" x2="77.71428571428571" y2="5" style="visibility: inherit;" fill="rgb(0, 0, 0)" stroke="rgb(204, 204, 204)" stroke-width="1px"></line><line x1="97.14285714285714" y1="0" x2="97.14285714285714" y2="5" style="visibility: inherit;" fill="rgb(0, 0, 0)" stroke="rgb(204, 204, 204)" stroke-width="1px"></line><line x1="116.57142857142857" y1="0" x2="116.57142857142857" y2="5" style="visibility: inherit;" fill="rgb(0, 0, 0)" stroke="rgb(204, 204, 204)" stroke-width="1px"></line><line x1="136" y1="0" x2="136" y2="5" style="visibility: inherit;" fill="rgb(0, 0, 0)" stroke="rgb(204, 204, 204)" stroke-width="1px"></line><line x1="155.42857142857142" y1="0" x2="155.42857142857142" y2="5" style="visibility: inherit;" fill="rgb(0, 0, 0)" stroke="rgb(204, 204, 204)" stroke-width="1px"></line><line x1="174.85714285714286" y1="0" x2="174.85714285714286" y2="5" style="visibility: inherit;" fill="rgb(0, 0, 0)" stroke="rgb(204, 204, 204)" stroke-width="1px"></line><line x1="194.28571428571428" y1="0" x2="194.28571428571428" y2="5" style="visibility: inherit;" fill="rgb(0, 0, 0)" stroke="rgb(204, 204, 204)" stroke-width="1px"></line><line x1="213.71428571428572" y1="0" x2="213.71428571428572" y2="5" style="visibility: inherit;" fill="rgb(0, 0, 0)" stroke="rgb(204, 204, 204)" stroke-width="1px"></line><line x1="233.14285714285714" y1="0" x2="233.14285714285714" y2="5" style="visibility: inherit;" fill="rgb(0, 0, 0)" stroke="rgb(204, 204, 204)" stroke-width="1px"></line><line x1="252.57142857142858" y1="0" x2="252.57142857142858" y2="5" style="visibility: inherit;" fill="rgb(0, 0, 0)" stroke="rgb(204, 204, 204)" stroke-width="1px"></line><line x1="272" y1="0" x2="272" y2="5" style="visibility: inherit;" fill="rgb(0, 0, 0)" stroke="rgb(204, 204, 204)" stroke-width="1px"></line></g><g transform="translate(0, 8)"><text x="0" y="0" dx="0em" dy="0.95em" style="text-anchor: middle; visibility: hidden; font-family: &quot;Helvetica Neue&quot;, sans-serif; font-size: 12px; font-weight: 200;" fill="rgb(50, 49, 63)" stroke="none" stroke-width="1px">-50k</text><text x="19.428571428571427" y="0" dx="0em" dy="0.95em" style="text-anchor: middle; visibility: inherit; font-family: &quot;Helvetica Neue&quot;, sans-serif; font-size: 12px; font-weight: 200;" fill="rgb(50, 49, 63)" stroke="none" stroke-width="1px">0</text><text x="38.857142857142854" y="0" dx="0em" dy="0.95em" style="text-anchor: middle; visibility: hidden; font-family: &quot;Helvetica Neue&quot;, sans-serif; font-size: 12px; font-weight: 200;" fill="rgb(50, 49, 63)" stroke="none" stroke-width="1px">50k</text><text x="58.285714285714285" y="0" dx="0em" dy="0.95em" style="text-anchor: middle; visibility: inherit; font-family: &quot;Helvetica Neue&quot;, sans-serif; font-size: 12px; font-weight: 200;" fill="rgb(50, 49, 63)" stroke="none" stroke-width="1px">100k</text><text x="77.71428571428571" y="0" dx="0em" dy="0.95em" style="text-anchor: middle; visibility: hidden; font-family: &quot;Helvetica Neue&quot;, sans-serif; font-size: 12px; font-weight: 200;" fill="rgb(50, 49, 63)" stroke="none" stroke-width="1px">150k</text><text x="97.14285714285714" y="0" dx="0em" dy="0.95em" style="text-anchor: middle; visibility: inherit; font-family: &quot;Helvetica Neue&quot;, sans-serif; font-size: 12px; font-weight: 200;" fill="rgb(50, 49, 63)" stroke="none" stroke-width="1px">200k</text><text x="116.57142857142857" y="0" dx="0em" dy="0.95em" style="text-anchor: middle; visibility: hidden; font-family: &quot;Helvetica Neue&quot;, sans-serif; font-size: 12px; font-weight: 200;" fill="rgb(50, 49, 63)" stroke="none" stroke-width="1px">250k</text><text x="136" y="0" dx="0em" dy="0.95em" style="text-anchor: middle; visibility: inherit; font-family: &quot;Helvetica Neue&quot;, sans-serif; font-size: 12px; font-weight: 200;" fill="rgb(50, 49, 63)" stroke="none" stroke-width="1px">300k</text><text x="155.42857142857142" y="0" dx="0em" dy="0.95em" style="text-anchor: middle; visibility: hidden; font-family: &quot;Helvetica Neue&quot;, sans-serif; font-size: 12px; font-weight: 200;" fill="rgb(50, 49, 63)" stroke="none" stroke-width="1px">350k</text><text x="174.85714285714286" y="0" dx="0em" dy="0.95em" style="text-anchor: middle; visibility: inherit; font-family: &quot;Helvetica Neue&quot;, sans-serif; font-size: 12px; font-weight: 200;" fill="rgb(50, 49, 63)" stroke="none" stroke-width="1px">400k</text><text x="194.28571428571428" y="0" dx="0em" dy="0.95em" style="text-anchor: middle; visibility: hidden; font-family: &quot;Helvetica Neue&quot;, sans-serif; font-size: 12px; font-weight: 200;" fill="rgb(50, 49, 63)" stroke="none" stroke-width="1px">450k</text><text x="213.71428571428572" y="0" dx="0em" dy="0.95em" style="text-anchor: middle; visibility: inherit; font-family: &quot;Helvetica Neue&quot;, sans-serif; font-size: 12px; font-weight: 200;" fill="rgb(50, 49, 63)" stroke="none" stroke-width="1px">500k</text><text x="233.14285714285714" y="0" dx="0em" dy="0.95em" style="text-anchor: middle; visibility: hidden; font-family: &quot;Helvetica Neue&quot;, sans-serif; font-size: 12px; font-weight: 200;" fill="rgb(50, 49, 63)" stroke="none" stroke-width="1px">550k</text><text x="252.57142857142858" y="0" dx="0em" dy="0.95em" style="text-anchor: middle; visibility: inherit; font-family: &quot;Helvetica Neue&quot;, sans-serif; font-size: 12px; font-weight: 200;" fill="rgb(50, 49, 63)" stroke="none" stroke-width="1px">600k</text><text x="272" y="0" dx="0em" dy="0.95em" style="text-anchor: middle; visibility: hidden; font-family: &quot;Helvetica Neue&quot;, sans-serif; font-size: 12px; font-weight: 200;" fill="rgb(50, 49, 63)" stroke="none" stroke-width="1px">650k</text></g><line x1="0" y1="0" x2="272" y2="0" fill="rgb(0, 0, 0)" stroke="rgb(204, 204, 204)" stroke-width="1px"></line></g></g></g></g></svg>