<svg viewBox="0 0 330 200" xmlns="http://www.w3.org/2000/svg"><g><g><g><g><g><line x1="58" y1="178" x2="53" y2="178" style="visibility: inherit;" fill="rgb(0, 0, 0)" stroke="rgb(204, 204, 204)" stroke-width="1px"></line><line x1="58" y1="155.75" x2="53" y2="155.75" style="visibility: inherit;" fill="rgb(0, 0, 0)" stroke="rgb(204, 204, 204)" stroke-width="1px"></line><line x1="58" y1="133.49999999999997" x2="53" y2="133.49999999999997" style="visibility: inherit;" fill="rgb(0, 0, 0)" stroke="rgb(204, 204, 204)" stroke-width="1px"></line><line x1="58" y1="111.25000000000009" x2="53" y2="111.25000000000009" style="visibility: inherit;" fill="rgb(0, 0, 0)" stroke="rgb(204, 204, 204)" stroke-width="1px"></line><line x1="58" y1="89.00000000000006" x2="53" y2="89.00000000000006" style="visibility: inherit;" fill="rgb(0, 0, 0)" stroke="rgb(204, 204, 204)" stroke-width="1px"></line><line x1="58" y1="66.75000000000004" x2="53" y2="66.75000000000004" style="visibility: inherit;" fill="rgb(0, 0, 0)" stroke="rgb(204, 204, 204)" stroke-width="1px"></line><line x1="58" y1="44.50000000000003" x2="53" y2="44.50000000000003" style="visibility: inherit;" fill="rgb(0, 0, 0)" stroke="rgb(204, 204, 204)" stroke-width="1px"></line><line x1="58" y1="22.25000000000003" x2="53" y2="22.25000000000003" style="visibility: inherit;" fill="rgb(0, 0, 0)" stroke="rgb(204, 204, 204)" stroke-width="1px"></line><line x1="58" y1="0" x2="53" y2="0" style="visibility: inherit;" fill="rgb(0, 0, 0)" stroke="rgb(204, 204, 204)" stroke-width="1px"></line></g><g transform="translate(48, 0)"><text x="0" y="178" dx="0em" dy="0.3em" style="text-anchor: end; visibility: hidden; font-family: &quot;Helvetica Neue&quot;, sans-serif; font-size: 12px; font-weight: 200;" fill="rgb(50, 49, 63)" stroke="none" stroke-width="1px">0.76</text><text x="0" y="155.75" dx="0em" dy="0.3em" style="text-anchor: end; visibility: inherit; font-family: &quot;Helvetica Neue&quot;, sans-serif; font-size: 12px; font-weight: 200;" fill="rgb(50, 49, 63)" stroke="none" stroke-width="1px">0.78</text><text x="0" y="133.49999999999997" dx="0em" dy="0.3em" style="text-anchor: end; visibility: hidden; font-family: &quot;Helvetica Neue&quot;, sans-serif; font-size: 12px; font-weight: 200;" fill="rgb(50, 49, 63)" stroke="none" stroke-width="1px">0.8</text><text x="0" y="111.25000000000009" dx="0em" dy="0.3em" style="text-anchor: end; visibility: inherit; font-family: &quot;Helvetica Neue&quot;, sans-serif; font-size: 12px; font-weight: 200;" fill="rgb(50, 49, 63)" stroke="none" stroke-width="1px">0.82</text><text x="0" y="89.00000000000006" dx="0em" dy="0.3em" style="text-anchor: end; visibility: hidden; font-family: &quot;Helvetica Neue&quot;, sans-serif; font-size: 12px; font-weight: 200;" fill="rgb(50, 49, 63)" stroke="none" stroke-width="1px">0.84</text><text x="0" y="66.75000000000004" dx="0em" dy="0.3em" style="text-anchor: end; visibility: inherit; font-family: &quot;Helvetica Neue&quot;, sans-serif; font-size: 12px; font-weight: 200;" fill="rgb(50, 49, 63)" stroke="none" stroke-width="1px">0.86</text><text x="0" y="44.50000000000003" dx="0em" dy="0.3em" style="text-anchor: end; visibility: hidden; font-family: &quot;Helvetica Neue&quot;, sans-serif; font-size: 12px; font-weight: 200;" fill="rgb(50, 49, 63)" stroke="none" stroke-width="1px">0.88</text><text x="0" y="22.25000000000003" dx="0em" dy="0.3em" style="text-anchor: end; visibility: inherit; font-family: &quot;Helvetica Neue&quot;, sans-serif; font-size: 12px; font-weight: 200;" fill="rgb(50, 49, 63)" stroke="none" stroke-width="1px">0.9</text><text x="0" y="0" dx="0em" dy="0.3em" style="text-anchor: end; visibility: hidden; font-family: &quot;Helvetica Neue&quot;, sans-serif; font-size: 12px; font-weight: 200;" fill="rgb(50, 49, 63)" stroke="none" stroke-width="1px">0.92</text></g><line x1="58" y1="0" x2="58" y2="178" fill="rgb(0, 0, 0)" stroke="rgb(204, 204, 204)" stroke-width="1px"></line></g></g><g transform="translate(58, 0)" clip-path="url(#clip_0)"><clipPath id="clip_0"><rect width="272" height="178"></rect></clipPath><g><g><g><line x1="0" y1="0" x2="0" y2="178" fill="rgb(0, 0, 0)" stroke="rgb(60, 60, 60)" stroke-width="1px" opacity="0.25"></line><line x1="19.428571428571427" y1="0" x2="19.428571428571427" y2="178" fill="rgb(0, 0, 0)" stroke="rgb(60, 60, 60)" stroke-width="1px" opacity="0.25"></line><line x1="38.857142857142854" y1="0" x2="38.857142857142854" y2="178" fill="rgb(0, 0, 0)" stroke="rgb(60, 60, 60)" stroke-width="1px" opacity="0.25"></line><line x1="58.285714285714285" y1="0" x2="58.285714285714285" y2="178" fill="rgb(0, 0, 0)" stroke="rgb(60, 60, 60)" stroke-width="1px" opacity="0.25"></line><line x1="77.71428571428571" y1="0" x2="77.71428571428571" y2="178" fill="rgb(0, 0, 0)" stroke="rgb(60, 60, 60)" stroke-width="1px" opacity="0.25"></line><line x1="97.14285714285714" y1="0" x2="97.14285714285714" y2="178" fill="rgb(0, 0, 0)" stroke="rgb(60, 60, 60)" stroke-width="1px" opacity="0.25"></line><line x1="116.57142857142857" y1="0" x2="116.57142857142857" y2="178" fill="rgb(0, 0, 0)" stroke="rgb(60, 60, 60)" stroke-width="1px" opacity="0.25"></line><line x1="136" y1="0" x2="136" y2="178" fill="rgb(0, 0, 0)" stroke="rgb(60, 60, 60)" stroke-width="1px" opacity="0.25"></line><line x1="155.42857142857142" y1="0" x2="155.42857142857142" y2="178" fill="rgb(0, 0, 0)" stroke="rgb(60, 60, 60)" stroke-width="1px" opacity="0.25"></line><line x1="174.85714285714286" y1="0" x2="174.85714285714286" y2="178" fill="rgb(0, 0, 0)" stroke="rgb(60, 60, 60)" stroke-width="1px" opacity="0.25"></line><line x1="194.28571428571428" y1="0" x2="194.28571428571428" y2="178" fill="rgb(0, 0, 0)" stroke="rgb(60, 60, 60)" stroke-width="1px" opacity="0.25"></line><line x1="213.71428571428572" y1="0" x2="213.71428571428572" y2="178" fill="rgb(0, 0, 0)" stroke="rgb(60, 60, 60)" stroke-width="1px" opacity="0.25"></line><line x1="233.14285714285714" y1="0" x2="233.14285714285714" y2="178" fill="rgb(0, 0, 0)" stroke="rgb(60, 60, 60)" stroke-width="1px" opacity="0.25"></line><line x1="252.57142857142858" y1="0" x2="252.57142857142858" y2="178" fill="rgb(0, 0, 0)" stroke="rgb(60, 60, 60)" stroke-width="1px" opacity="0.25"></line><line x1="272" y1="0" x2="272" y2="178" fill="rgb(0, 0, 0)" stroke="rgb(60, 60, 60)" stroke-width="1px" opacity="0.25"></line></g><g><line x1="0" y1="178" x2="272" y2="178" fill="rgb(0, 0, 0)" stroke="rgb(60, 60, 60)" stroke-width="1px" opacity="0.25"></line><line x1="0" y1="155.75" x2="272" y2="155.75" fill="rgb(0, 0, 0)" stroke="rgb(60, 60, 60)" stroke-width="1px" opacity="0.25"></line><line x1="0" y1="133.49999999999997" x2="272" y2="133.49999999999997" fill="rgb(0, 0, 0)" stroke="rgb(60, 60, 60)" stroke-width="1px" opacity="0.25"></line><line x1="0" y1="111.25000000000009" x2="272" y2="111.25000000000009" fill="rgb(0, 0, 0)" stroke="rgb(60, 60, 60)" stroke-width="1px" opacity="0.25"></line><line x1="0" y1="89.00000000000006" x2="272" y2="89.00000000000006" fill="rgb(0, 0, 0)" stroke="rgb(60, 60, 60)" stroke-width="1px" opacity="0.25"></line><line x1="0" y1="66.75000000000004" x2="272" y2="66.75000000000004" fill="rgb(0, 0, 0)" stroke="rgb(60, 60, 60)" stroke-width="1px" opacity="0.25"></line><line x1="0" y1="44.50000000000003" x2="272" y2="44.50000000000003" fill="rgb(0, 0, 0)" stroke="rgb(60, 60, 60)" stroke-width="1px" opacity="0.25"></line><line x1="0" y1="22.25000000000003" x2="272" y2="22.25000000000003" fill="rgb(0, 0, 0)" stroke="rgb(60, 60, 60)" stroke-width="1px" opacity="0.25"></line><line x1="0" y1="0" x2="272" y2="0" fill="rgb(0, 0, 0)" stroke="rgb(60, 60, 60)" stroke-width="1px" opacity="0.25"></line></g></g></g><g><g><line x1="0" y1="1023.4999999999999" x2="272" y2="1023.4999999999999" fill="rgb(0, 0, 0)" stroke="rgb(153, 153, 153)" stroke-width="1.5px"></line></g></g><g><g><line x1="19.428571428571427" y1="0" x2="19.428571428571427" y2="178" fill="rgb(0, 0, 0)" stroke="rgb(153, 153, 153)" stroke-width="1.5px"></line></g></g><g><g><g><g><g><path stroke="rgb(255, 112, 67)" stroke-width="2px" d="M20.983245714285715,189.73929738998413L21.177531428571427,177.40832498669624L21.371817142857143,178.20424592494965L21.56610285714286,181.08230611681938L21.76038857142857,171.6875479221344L21.954674285714283,174.65605518221855L22.148960000000002,179.9098760485649L22.343245714285715,169.34321826696396L22.53753142857143,170.76689755916595L22.731817142857142,169.10191556811333L22.926102857142855,167.44137635827065L23.120388571428574,161.15716180205345L23.314674285714286,171.29804199934006L23.508960000000002,165.27329912781715L23.703245714285714,164.02275568246841L23.897531428571426,165.16203066706657L24.091817142857145,163.63822302222252L24.286102857142858,163.997425198555L24.48038857142857,162.913121342659L24.868959999999998,155.92343291640282L25.646102857142857,164.29237282276154L25.84038857142857,150.17540237307549L26.034674285714285,153.7594006061554L26.22896,149.60944509506226L26.423245714285713,154.30559745430946L26.811817142857144,158.05742672085762L27.006102857142857,149.82336169481277L27.200388571428572,157.6411978006363L27.394674285714284,162.49530097842216L27.58896,149.34427073597908L27.977531428571428,152.20920151472092L28.171817142857144,156.44880837202072L28.366102857142856,149.71063441038132L28.560388571428568,157.0140362381935L28.754674285714287,157.08512073755264L28.94896,151.08405059576035L29.337531428571427,150.17520344257355L29.531817142857143,152.0909041762352L29.92038857142857,152.17087423801422L30.114674285714287,149.72648254036903L30.30896,153.1915203332901L30.503245714285715,141.39235547184944L30.69753142857143,150.54435214400291L30.891817142857143,150.50721845030785L31.474674285714286,148.43529096245766L31.668960000000002,149.56070712208748L31.863245714285714,140.20885160565376L32.05753142857143,147.0812373459339L32.25181714285714,149.94875422120094L32.446102857142854,142.10074698925018L32.64038857142857,142.06898441910744L32.834674285714286,145.04631093144417L33.02896,140.3886847794056L33.22324571428572,144.64394083619118L33.41753142857143,142.1234250664711L33.80610285714286,145.90681797266006L34.00038857142857,137.6131401062012L34.194674285714285,136.9911507368088L34.38896,139.4129969775677L34.58324571428571,148.31381073594093L34.77753142857143,141.00556826591492L34.97181714285715,142.1023384332657L35.16610285714285,138.00178399682048L35.36038857142857,140.3051339685917L35.74896,139.61451357603076L35.943245714285716,142.89554065465927L36.33181714285714,139.8728579878807L36.52610285714286,142.99222087860107L36.72038857142857,131.36420255899432L37.108959999999996,131.95078229904178L37.303245714285715,139.86377349495888L37.497531428571435,141.7709865272045L37.88610285714286,144.003119379282L38.08038857142857,136.3175720572472L38.27467428571428,132.33325934410098L38.46896,133.03654497861865L38.663245714285715,134.5388018190861L38.85753142857143,134.3628146350384L39.05181714285714,132.83887436985972L39.44038857142857,130.58790943026546L39.63467428571428,137.742909103632L39.82896,136.41975602507594L40.02324571428572,131.43581753969195L40.21753142857143,132.51906043291095L40.411817142857146,124.75957727432254L40.60610285714286,137.82088986039165L40.80038857142857,131.96185609698298L41.18896,137.44743099808696L41.383245714285714,126.85564166307452L41.577531428571426,133.34236747026446L41.771817142857145,136.51915496587756L41.96610285714286,134.58376011252406L42.16038857142857,127.09906628727916L42.35467428571429,128.10810810327533L42.54896,129.81924197077754L42.93753142857143,123.76658251881602L43.131817142857145,132.56952247023585L43.32610285714286,124.02068307995799L43.52038857142857,124.36940824985507L43.71467428571429,123.07496747374537L43.90896,124.87880295515063L44.10324571428571,126.88687375187877L44.29753142857143,132.44810855388644L44.49181714285714,128.76371672749522L44.686102857142856,124.39016333222392L44.880388571428576,124.23221251368525L45.07467428571429,125.18111100792888L45.46324571428571,131.06262391805652L45.65753142857143,129.40486973524096L46.240388571428575,124.42935264110568L46.43467428571428,126.26634320616725L46.82324571428572,117.0745604336262L47.017531428571424,134.83335158228877L47.406102857142855,126.55578708648684L47.79467428571429,127.99372306466105L47.98896,119.2310996949673L48.18324571428572,130.1904462873936L48.37753142857143,124.69121149182322L48.76610285714286,123.62487769126895L48.96038857142857,120.64211374521258L49.348960000000005,124.84233236312869L49.54324571428571,119.50655212998393L49.73753142857143,117.58846423029902L49.93181714285714,124.06007131934169L50.32038857142857,116.14635071158412L50.514674285714285,121.74763685464862L50.708960000000005,126.49975499510768L50.90324571428571,123.88647130131724L51.09753142857143,122.53573319315913L51.29181714285715,120.25837680697444L51.48610285714285,119.53314250707629L51.874674285714285,123.1292091906071L52.06896,121.48451811075213L52.45753142857143,121.61581224203113L52.65181714285714,125.58122655749324L53.04038857142857,119.90063345432284L53.23467428571429,120.19690728187564L53.42896,120.12847518920901L53.81753142857143,118.93787613511088L54.01181714285714,113.41171941161157L54.20610285714286,116.76966628432277L54.78896,121.61634272336963L54.983245714285715,125.68307897448543L55.17753142857143,114.90263721346858L55.37181714285714,118.73854777216914L55.76038857142858,118.25872740149501L55.95467428571428,118.76440873742106L56.14896,117.5079636871815L56.343245714285715,117.27674013376239L56.53753142857143,120.41035971045497L56.731817142857146,121.24659723043445L56.92610285714286,116.72019889950755L57.12038857142857,118.88920447230342L57.31467428571428,113.65660285949708L57.703245714285714,113.2663675248623L57.897531428571426,115.79537099599841L58.48038857142857,122.97231933474544L59.257531428571426,110.94193091988565L59.451817142857145,117.18821606040004L59.64610285714286,118.13844075798991L59.84038857142857,116.6973218917847L60.03467428571429,117.25359788537028L60.42324571428571,107.17485031485559L60.811817142857144,109.15613180398942L61.00610285714286,111.30789673328401L61.200388571428576,112.4021471142769L61.39467428571429,108.57008254528047L61.58896,112.08525082468988L62.17181714285714,109.41626659035684L62.366102857142856,111.38799941539766L62.560388571428575,113.5805450975895L62.75467428571428,109.76267090439798L62.94896,119.00663977861407L63.14324571428572,112.32927224040033L63.337531428571424,112.51135995984079L63.53181714285714,110.20051693916322L63.726102857142855,108.28408679366113L63.920388571428575,113.93377935886384L64.11467428571429,111.4748657345772L64.30896,111.40490850806238L64.69753142857142,112.08346045017244L64.89181714285715,107.0477337241173L65.08610285714286,111.95521658658983L65.47467428571429,110.05728697776796L65.66896,111.98353102803232L65.86324571428571,114.10903713107112L66.25181714285715,105.0309099853039L66.44610285714286,107.37583643198015L66.64038857142857,104.83363723754884L66.83467428571429,105.50476244091989L67.22324571428571,113.49779000878335L67.41753142857142,105.3466790020466L67.80610285714286,106.74608877301218L68.00038857142857,108.69408255815507L68.19467428571429,112.89237818121912L68.58324571428571,112.97082310914995L68.77753142857144,107.47238403558733L68.97181714285715,116.16591221094134L69.16610285714286,110.74578544497491L69.36038857142856,106.36891654133798L69.55467428571428,106.49709409475328L69.74896,106.40273472666742L69.94324571428571,104.85313242673875L70.13753142857144,100.0694506466389L70.33181714285715,107.65725678205492L70.52610285714286,109.2374280691147L70.72038857142857,102.62670224905015L70.91467428571428,101.93853533267976L71.30324571428571,100.50457796454432L71.49753142857143,102.56960919499399L71.69181714285715,107.86978086829187L72.08038857142857,103.92379543185235L72.46896,108.57750928401948L72.66324571428572,104.3737099170685L72.85753142857143,103.21931621432306L73.24610285714286,110.26742389798166L73.63467428571428,106.2728994190693L74.02324571428572,108.18283116817476L74.21753142857143,104.44685003161432L74.41181714285713,103.20121353864671L74.60610285714286,105.00332495570184L74.80038857142857,103.968687415123L75.18896000000001,105.8525592684746L75.38324571428572,101.23796841502192L75.57753142857143,101.21124541759494L75.77181714285713,104.33399012684824L75.96610285714286,103.0099087059498L76.16038857142857,100.08602818846705L76.35467428571428,98.81837671995166L76.54896000000001,104.31442862749101L77.52038857142857,103.92412698268892L78.10324571428572,104.36920082569124L78.29753142857142,102.17367118597032L78.68610285714286,105.12016347050668L78.88038857142857,100.56578224897387L79.0746742857143,106.57169303297998L79.26896,100.9468004703522L79.4632457142857,101.54107218980792L79.65753142857142,95.30068865418437L79.85181714285714,100.5475469529629L80.04610285714286,106.68952620029451L80.24038857142857,97.55636161565783L80.4346742857143,105.35636028647424L80.62896,102.07685834169389L81.21181714285714,105.98948976397516L81.40610285714286,100.28542286157611L81.60038857142858,102.30470007658006L81.7946742857143,100.00347203016284L81.98895999999999,100.72797691822055L82.37753142857143,100.66438546776774L82.57181714285714,101.10674059391025L82.76610285714285,102.21829792857172L82.96038857142858,106.13921812176706L83.1546742857143,100.41718116402629L83.34895999999999,100.09935653209689L83.73753142857143,97.99560016393664L83.93181714285714,98.34531998634341L84.12610285714285,102.16823375225069L84.32038857142858,99.91561105847362L84.51467428571428,102.01220592856409L84.70895999999999,104.92547681927682L84.90324571428572,101.10163471102717L85.09753142857143,93.17146918177608L85.29181714285714,99.20363879203799L85.48610285714287,102.80202633142473L85.87467428571428,95.07045975327495L86.06896,94.70422869920733L86.45753142857143,96.02346947789195L86.84610285714287,91.88259845972064L87.23467428571428,94.85024368762973L87.42896,98.70803660154345L87.62324571428572,97.36976480484012L87.81753142857143,99.10317888855937L88.01181714285715,100.56863358616832L88.20610285714285,92.35956749320033L88.40038857142856,96.68438291549685L88.59467428571428,94.85674208402637L88.78896,96.65500751137736L88.98324571428572,93.12193548679355L89.17753142857143,96.75215190649035L89.56610285714285,91.02978339791301L89.76038857142856,79.6522848904133L89.95467428571429,82.02380171418191L90.14896,83.55059331655504L90.34324571428571,78.47269332408906L90.53753142857144,81.23219093680383L90.73181714285714,83.52101898193361L90.92610285714285,81.1253652572632L91.12038857142856,77.66642799973489L91.31467428571429,84.96658062934877L91.50896,86.65623000264169L91.70324571428571,79.72263997793199L91.89753142857144,88.24197134375574L92.09181714285714,81.47985941171648L92.28610285714285,84.52356240153314L92.48038857142856,80.9047513306141L92.67467428571429,85.61230903863908L92.86896,81.24326473474504L93.06324571428571,81.4289995133877L93.25753142857143,77.44342690706254L93.45181714285714,80.55284327268602L93.84038857142858,80.5206828415394L94.03467428571429,77.78333282470705L94.42324571428573,80.43680047988893L94.61753142857143,85.18626621365549L94.81181714285714,85.41715821623804L95.00610285714285,77.90879166126253L95.39467428571429,80.16426569223405L95.58896,81.86386159062387L95.78324571428571,76.1863850653172L96.17181714285714,78.12900772690774L96.36610285714286,77.31166860461236L96.75467428571429,75.79057967662816L96.94896,80.94261443614961L97.14324571428571,75.84031230211262L97.33753142857142,80.6005202829838L97.53181714285714,76.11941179633145L97.92038857142857,73.28100508451466L98.11467428571429,81.9638573229313L98.30896,76.08837863802914L98.50324571428571,74.82914856076245L98.89181714285715,81.41653320193292L99.08610285714286,75.56863954663281L99.28038857142857,78.06528365612031L99.47467428571429,75.00831863284115L99.66896,79.79007741808893L100.05753142857142,78.34120026230813L100.25181714285715,77.40768572688104L100.44610285714286,78.48834252357484L100.83467428571427,83.83784896135332L101.22324571428571,77.6958697140217L101.61181714285715,79.49333941936494L102.00038857142857,78.8316965699196L102.19467428571429,77.50595739483835L102.38896,73.31820508837704L102.77753142857144,78.86412224173547L102.97181714285715,70.2068657279015L103.16610285714286,81.19976526498796L103.55467428571428,76.50692841410638L103.74896,76.04448130726819L103.94324571428571,80.57353204488756L104.13753142857144,75.98248130083088L104.33181714285715,81.67607119679452L104.52610285714286,80.99009251594545L104.72038857142857,79.14096719026567L105.10896,73.78748214244847L105.49753142857143,80.26227211952211L105.88610285714284,78.92366877198221L106.27467428571428,75.14876356720929L107.05181714285715,81.81114500761034L107.24610285714286,79.30455437302591L107.63467428571428,77.35138839483263L107.82896,72.376003921032L108.02324571428572,74.12626078724865L108.21753142857143,74.59268650412564L108.41181714285713,75.21454325318341L108.80038857142857,74.48194852471356L108.99467428571428,77.51895418763162L109.18896000000001,75.37766626477246L109.38324571428572,75.8112684488297L109.57753142857143,78.03604087233545L109.77181714285713,81.31952142715456L109.96610285714286,72.40431836247448L110.16038857142857,76.16271233558659L110.35467428571428,76.68742468953134L110.54896000000001,73.48802542686467L110.74324571428572,71.10371074080471L110.93753142857142,71.70547550916676L111.32610285714286,80.3688988685608L111.52038857142857,79.49108487367631L111.7146742857143,78.76724308729173L111.90896000000001,74.73810470104222L112.10324571428572,72.69256865978245L112.29753142857142,72.69502213597302L112.49181714285714,72.76975369453434L112.88038857142857,73.21489384770398L113.0746742857143,64.943894058466L113.26896,79.51840466260911L113.4632457142857,73.03260719776158L113.65753142857142,77.73863977193834L113.85181714285714,75.6311037242413L114.04610285714286,80.370424002409L114.24038857142857,80.73791494965555L114.4346742857143,74.05749714374546L114.62896,74.3686907589436L114.8232457142857,75.45445343852047L115.01753142857143,75.471959322691L115.40610285714286,69.42559933662419L115.60038857142858,77.44667610526086L116.1832457142857,73.23909705877308L116.37753142857143,76.99337980151178L116.57181714285714,78.4177221953869L116.76610285714285,76.0214716792107L116.96038857142858,75.59450051188473L117.1546742857143,78.95297786593439L117.34895999999999,72.90787777304654L117.54324571428572,70.59027111530308L117.73753142857143,76.1217989623547L118.12610285714285,73.47098371386532L118.32038857142858,77.04258194565774L118.70895999999999,67.20759055018429L119.29181714285714,63.651243656873746L119.48610285714287,64.14067900180821L119.87467428571428,68.13679492473607L120.45753142857143,63.859324961900754L120.65181714285714,67.50008469820027L120.84610285714287,66.8009766042233L121.04038857142857,71.7928723096848L121.23467428571428,62.635836064815564L121.42896,63.925104647874875L121.62324571428572,60.66158345341687L121.81753142857143,68.06193074584012L122.01181714285715,69.64150524139409L122.20610285714285,59.80432561039929L122.40038857142856,60.66874495148663L122.78896,68.04827085137372L122.98324571428572,65.8149444162846L123.17753142857143,67.54451251029973L123.37181714285715,62.626022160053296L123.56610285714285,68.91196078062062L123.76038857142856,60.02944862842564L123.95467428571429,70.50048714876179L124.53753142857144,63.385936677455945L124.73181714285714,66.82637339830403L124.92610285714285,63.19330564141278L125.12038857142856,62.23863816261296L126.28610285714285,63.717222273349805L126.67467428571429,59.17888811230664L126.86896,58.610344737768216L127.06324571428571,64.32953035831456L127.25753142857143,60.25264865159993L127.45181714285714,62.74272805452351L127.64610285714285,68.10397139191632L127.84038857142858,64.16859558224682L128.0346742857143,63.61550247669224L128.22896,64.57268974184994L128.4232457142857,64.6796480417252L128.61753142857143,64.02748754620556L128.81181714285714,53.77799129486088L129.00610285714285,65.48246523737912L129.20038857142856,63.01181471347813L129.3946742857143,64.35260629653935L129.58896000000001,64.56904268264775L129.7832457142857,65.44102138280873L130.36610285714286,59.64756837487225L130.56038857142858,60.72517490386967L130.7546742857143,58.424477338790936L131.1432457142857,65.06113043427472L131.33753142857142,60.76482838392262L131.53181714285714,60.59281980991368L131.72610285714285,61.38602203130726L131.9203885714286,67.10819160938267L132.1146742857143,60.272873252630276L132.30895999999998,63.61722654104237L132.5032457142857,63.62730568647389L132.69753142857144,60.44773316383366L132.89181714285715,67.02285042405133L133.08610285714286,65.29752618074421L133.28038857142857,61.33914074301724L133.4746742857143,62.79272592067723L133.66896,64.23497205972676L133.8632457142857,61.092997401952786L134.05753142857142,63.68731638789181L134.25181714285713,57.70739918947224L134.44610285714285,59.16025495529179L134.6403885714286,64.52163091301922L134.83467428571427,63.738441526889844L135.22324571428572,59.7082421779633L135.41753142857144,62.98648422956471L135.61181714285715,59.24035763740544L135.80610285714286,64.02954316139225L136.19467428571429,65.11736145615582L136.38896,64.52196246385579L136.5832457142857,64.65643948316578L136.77753142857142,59.73914271593098L136.97181714285713,57.58034890890126L137.16610285714285,56.011317729949994L137.3603885714286,59.72011169791226L137.55467428571427,59.89875128865246L137.74896,58.26851582527165L137.94324571428572,62.219607144594235L138.33181714285715,60.654687196016354L138.52610285714286,65.03977856040005L138.72038857142857,64.23218703269963L139.10896000000002,52.1994114518166L139.3032457142857,60.32830855250363L139.49753142857142,61.42912364006047L139.69181714285716,65.73577007651333L139.88610285714284,57.55190184712414L140.08038857142859,61.42468085885052L140.2746742857143,64.05487364530568L140.46895999999998,58.10612222552304L140.66324571428572,60.611187726259274L140.8575314285714,61.89203491806988L141.05181714285715,60.85607117414479L141.24610285714286,65.61521819233899L141.63467428571428,61.53548514842991L142.21753142857142,64.29451858997349L142.41181714285716,60.45834279060368L142.60610285714284,60.505224078893704L143.18895999999998,59.99251386523251L143.96610285714286,60.937964230775876L144.1603885714286,63.5385826826096L144.35467428571428,62.40010342001919L144.54896,59.736225068569226L144.7432457142857,62.90101042389874L144.93753142857142,60.54905509948735L145.13181714285716,63.37366929650311L145.32610285714284,58.46890515089039L145.90895999999998,66.69965466856961L146.10324571428572,62.26522853970532L146.29753142857143,58.772672027349515L146.49181714285714,63.59090140461926L146.88038857142857,64.19206938147549L147.07467428571428,61.202939659357114L147.26896,61.25923699140553L147.85181714285716,53.83634424209599L148.04610285714287,55.75370272994046L148.24038857142855,52.09238684177403L148.4346742857143,62.16821676492695L148.62896,59.78947213292126L148.82324571428572,51.04369154572491L149.01753142857143,53.92619451880459L149.21181714285717,55.1171914339066L149.40610285714286,55.95614767074589L149.60038857142857,53.39684045314793L149.79467428571428,58.491450607776684L149.98896,57.46662697196011L150.18324571428573,59.07173088192944L150.37753142857142,48.844448536634474L150.57181714285713,52.2592895328999L150.76610285714287,53.59305223822598L151.34896,51.24348407983784L151.54324571428572,53.597229778766675L151.73753142857143,50.13762941956524L151.93181714285714,59.29711914062504L152.12610285714285,51.96016436815266L152.32038857142857,52.295826435089154L152.5146742857143,57.069230139255566L152.70896,52.85681045055394L152.90324571428573,55.123955070972485L153.09753142857141,49.3131951093674L153.29181714285713,51.547052025795026L153.68038857142855,45.026839584112196L153.8746742857143,51.3509728610516L154.06896,49.9809384942055L154.45753142857143,55.10432726144795L154.65181714285714,52.491574048996014L154.84610285714285,53.61029288172726L155.04038857142857,54.05410683155064L155.2346742857143,53.04420298337941L155.42896,51.813618898391766L155.6232457142857,51.603680908680005L155.81753142857144,54.01471859216694L156.01181714285713,55.70556154847149L156.20610285714287,52.5781751275063L156.40038857142858,54.28997209668164L156.5946742857143,55.39324066042904L156.78896,52.94765537977223L156.98324571428572,50.94661346077923L157.17753142857143,57.59235104918484L157.37181714285714,51.625430643558545L157.56610285714288,53.5648041069508L157.76038857142856,53.568915337324185L157.9546742857143,53.765127122402234L158.14896,50.5671203732491L158.53753142857144,51.171205997467084L158.92610285714287,48.63066455721858L159.50896,51.96553549170498L160.09181714285714,55.52281072735791L160.28610285714288,48.05058321356776L160.48038857142856,54.29381808638577L160.67467428571427,49.100671023130445L160.86896000000002,51.12226909399037L161.0632457142857,56.25938406586651L161.25753142857144,55.62665244936947L161.45181714285712,51.411978214979214L161.64610285714286,48.76295334100726L161.84038857142858,46.323667526245146L162.03467428571426,49.43387961387637L162.22896,48.41316720843318L162.4232457142857,59.341149091720624L163.00610285714288,56.316079258918805L163.20038857142856,53.74152070283894L163.39467428571427,47.37143447995189L163.7832457142857,57.920453757047696L163.97753142857144,46.78551784157756L164.17181714285715,49.005317002534895L164.36610285714286,49.5837405920029L164.56038857142858,54.77662241458897L164.7546742857143,53.410632967948956L164.94896,50.829310774803204L165.33753142857145,51.915537625551266L165.53181714285714,46.80428361892703L165.9203885714286,52.62200614809994L166.11467428571427,50.64152038097386L166.30896,49.64063471555713L166.5032457142857,54.44599992036824L166.69753142857144,49.01254481077197L167.08610285714283,50.061836898326916L167.28038857142857,46.71330606937411L167.4746742857143,49.823186606168775L167.66896,50.671492576599164L167.8632457142857,54.096943199634595L168.05753142857145,58.500336170196576L168.25181714285713,48.90127635002139L168.44610285714285,50.54669684171681L168.6403885714286,55.11758929491047L168.83467428571427,51.524307638406796L169.02896,53.17403829097752L169.22324571428572,52.0911932587624L169.41753142857144,50.95788618922238L169.61181714285715,53.64954850077633L170.00038857142857,50.377672225236935L170.19467428571429,47.78395003080371L170.38896,49.368497788906126L170.5832457142857,50.36129361391072L170.77753142857142,52.01327881217007L171.16610285714285,44.718828856945066L171.3603885714286,44.72227698564532L171.55467428571427,50.51858133077626L172.1375314285714,45.73423644900325L172.33181714285715,45.71427708864215L172.72038857142857,48.48140037059787L172.91467428571428,45.32006314396861L173.10896000000002,49.52638229727748L173.3032457142857,43.61496350169185L173.49753142857142,45.73072201013568L173.69181714285716,47.70079708099368L174.08038857142859,47.79482489824298L174.2746742857143,48.49466240406039L174.46895999999998,40.96759638190272L174.66324571428572,48.013980001211195L174.8575314285714,47.7718152701855L175.05181714285715,50.34677168726925L175.24610285714286,44.886460959911375L175.44038857142857,42.53921365737918L175.82896,48.57953941822055L176.0232457142857,50.4946433603764L176.21753142857142,46.90514138340953L176.41181714285716,49.26160579919818L176.60610285714284,49.1965555250645L176.9946742857143,47.630839854478864L177.18895999999998,50.365537464618725L177.38324571428572,48.19235435128215L177.57753142857143,46.85806116461757L177.77181714285715,45.34499576687816L177.96610285714286,45.81831774115565L178.1603885714286,53.98222661018376L178.35467428571428,44.62307697534564L178.54896,50.438346028327985L178.7432457142857,47.58700883388522L178.93753142857142,44.43011438846591L179.13181714285716,47.48462593555453L179.32610285714284,49.497669994831114L179.52038857142855,47.166005581617384L179.7146742857143,41.13947233557704L179.90895999999998,49.83790746331218L180.10324571428572,46.5714023113251L180.29753142857143,47.19140237569812L180.68610285714286,47.82977035641673L180.88038857142857,43.56907686591151L181.07467428571428,50.090880751609845L181.26896,45.73801612854007L181.46324571428573,49.78048285841945L181.65753142857142,43.54871964454654L181.85181714285716,38.17481106519702L182.04610285714287,42.760623306036024L182.4346742857143,47.664260178804426L182.82324571428572,48.79146671295169L183.01753142857143,47.331913620233564L183.21181714285717,41.7896435260773L183.40610285714286,48.92329132556918L183.60038857142857,47.648080497980146L183.98896,46.13136804103854L184.18324571428573,41.918749421834974L184.37753142857142,47.059312522411375L184.57181714285713,48.15853616595271L184.96038857142855,44.60557109117511L185.1546742857143,42.75690993666652L185.34896,42.990785896778135L185.54324571428572,51.582196414470715L185.93181714285714,46.57113707065585L186.12610285714285,45.84683111310008L186.32038857142857,42.039433926343946L186.5146742857143,43.94425979256633L186.70896,48.947892397642164L186.90324571428573,45.58914980292323L187.09753142857141,45.032144397497206L187.29181714285713,47.04028150439265L187.48610285714287,48.12239712476733L187.68038857142855,46.578563809394865L187.8746742857143,45.5107048749924L188.06896,45.26674976944926L188.26324571428572,49.210149109363584L188.84610285714285,41.33707663416865L189.04038857142857,44.08205232024196L189.42896,39.29008176922801L189.6232457142857,46.94307079911235L189.81753142857144,48.19500675797465L190.01181714285713,48.33458966016772L190.40038857142858,43.74307474493983L190.5946742857143,43.8963175415993L190.78896,45.93853807449344L190.98324571428572,44.42487588524821L191.37181714285714,45.371254593133955L191.76038857142856,46.34979373216632L192.14896,39.19950208067897L192.3432457142857,40.82735037803653L192.53753142857144,43.7203303575516L192.73181714285712,48.63848915696147L192.92610285714287,44.78341495990756L193.7032457142857,47.13278418779376L193.89753142857143,40.06213104724887L194.09181714285714,48.26224526762965L194.28649142857142,46.08395627141002L194.48077714285714,45.51978936791423L194.8693485714286,49.3830860257149L195.06363428571427,41.20578250288966L195.25792,46.63506007194522L195.45220571428572,45.41342785954478L195.6464914285714,50.55273106694226L195.84077714285715,45.059198945760755L196.03506285714286,45.72495302557948L196.22934857142857,42.32410347461703L196.4236342857143,48.09865808486941L196.61792,46.567688941955595L197.00649142857142,45.330009669065504L197.20077714285716,45.02518182992938L197.39506285714285,44.87850373983386L197.5893485714286,42.753594428300886L197.7836342857143,45.1702684760094L197.97791999999998,51.52470549941067L198.17220571428572,46.01757979393008L198.3664914285714,48.5136271119118L198.56077714285715,47.77566125988963L198.75506285714286,37.57145485281947L198.94934857142857,46.076794773340254L199.14363428571428,45.30713266134265L199.33792,41.62545955181125L199.5322057142857,45.2716567218304L199.92077714285716,43.473789155483274L200.11506285714285,48.96758651733401L200.3093485714286,39.62110212445262L200.69791999999998,43.80441164970401L200.89220571428572,47.540790647268324L201.08649142857143,43.18885436654094L201.28077714285715,50.30798023939137L201.47506285714286,41.67433014512065L201.66934857142854,48.66938969492915L201.86363428571428,46.75793281197551L202.05792,45.62475836277011L202.2522057142857,43.769930362701444L202.44649142857142,41.3157910704613L202.64077714285716,47.28151789307597L202.83506285714284,41.6882552802563L203.2236342857143,44.24948549270633L203.41791999999998,50.183184504509015L203.61220571428572,40.47961986064914L203.80649142857143,44.700328320264845L204.19506285714286,38.21320465207103L204.38934857142857,46.81257238984111L204.58363428571428,43.843534648418455L204.77792,43.60952606797221L204.97220571428574,44.15466195344928L205.16649142857142,40.332875460386305L205.74934857142856,47.7303051054478L205.9436342857143,42.567925959825544L206.33220571428572,42.904052197933225L206.52649142857143,43.50866830348971L206.72077714285712,42.62090778350833L206.91506285714286,46.555819422006635L207.10934857142857,45.80087816715243L207.30363428571428,44.6480759084225L207.69220571428573,42.85000941157344L208.08077714285713,43.9414747655392L208.46934857142855,46.05749851465228L208.6636342857143,43.01399445533755L208.85792,40.81282845139506L209.05220571428572,45.76367816329005L209.24649142857143,41.19557073712352L209.63506285714286,42.50983825325969L209.82934857142857,43.971977442503004L210.0236342857143,43.99571648240092L210.4122057142857,53.731242626905484L210.60649142857142,44.599205315113096L210.80077714285713,42.450822204351454L210.99506285714287,46.00014021992686L211.57792,42.77613988518718L211.7722057142857,40.67516854405406L211.96649142857143,46.42313277721408L212.16077714285714,39.94535884261134L212.35506285714285,46.74029430747035L212.54934857142857,35.457088857889204L212.7436342857143,45.96108353137973L212.93792,48.30269446969035L213.1322057142857,44.08410793542865L213.32649142857144,47.107586324214964L213.52077714285713,46.90766116976741L213.71506285714287,35.518823623657255L214.1036342857143,44.40160101652148L214.49220571428572,46.811511427164106L214.68649142857143,47.977310478687315L215.07506285714288,45.78456586599353L215.26934857142857,44.08636248111728L215.46363428571428,44.845746517181425L215.65792,44.15718173980716L215.8522057142857,44.73938500881198L216.04649142857144,43.57855921983722L216.24077714285713,47.07814460992816L216.43506285714287,43.628557085990934L216.62934857142858,44.297958225011854L216.82363428571426,44.84190052747729L217.01792,44.42600315809253L217.40649142857143,47.36367619037631L217.79506285714288,41.90303391218188L217.98934857142856,42.487756967544584L218.18363428571428,40.172073304653196L218.37792000000002,38.19914689660075L218.5722057142857,42.51879012584689L218.76649142857144,47.13285049796107L219.15506285714287,44.704903721809416L219.54363428571426,38.543164044618635L219.73792,40.80765625834468L220.12649142857143,44.61923098564151L220.32077714285714,39.23265716433528L220.51506285714285,44.7084844708443L220.70934857142856,43.839754968881635L220.90363428571428,46.14456376433375L221.09792000000002,45.03605669736865L221.2922057142857,42.08850345015529L221.68077714285715,41.898524820804624L221.87506285714284,45.42277759313586L222.06934857142858,50.62593749165539L222.45792,45.211181849241285L222.6522057142857,46.028786212205915L222.84649142857145,42.910086423158674L223.23506285714285,37.848233491182356L223.62363428571427,43.50203728675845L223.81792000000002,42.391143053770094L224.0122057142857,42.84317946434024L224.20649142857144,42.37933984398845L224.40077714285715,41.18449693918231L224.59506285714284,38.82392129302028L224.78934857142858,42.498167663812666L224.9836342857143,42.654659658670454L225.17792,42.41740188002589L225.3722057142857,38.39124745130542L225.56649142857142,39.773482888937025L225.76077714285714,38.39456295967105L226.1493485714286,43.75381699204448L226.34363428571427,40.64791506528857L226.53792,41.99679648876193L226.73220571428573,47.45166978240016L226.9264914285714,38.992017567157774L227.12077714285715,44.93924385309222L227.31506285714283,43.45170786976817L227.50934857142857,39.99064868688586L227.7036342857143,40.1474059224129L227.89792,39.74536737799647L228.0922057142857,39.296248614788084L228.28649142857142,37.523247361183195L228.48077714285714,37.931651681661634L228.67506285714285,43.398460805416136L229.06363428571427,39.99641767144206L229.25792,34.94457757472995L229.45220571428572,42.11767992377284L229.84077714285715,39.47236841917041L230.03506285714286,41.82816973328593L230.22934857142857,41.58414831757548L230.4236342857143,42.24486282467845L230.61792,34.91778826713565L230.8122057142857,37.99040248990062L231.20077714285716,38.71935015916827L231.39506285714285,38.89029777050021L231.5893485714286,38.56531164050105L231.7836342857143,41.15114292502406L231.97791999999998,42.858762353658705L232.75506285714286,43.092439383268385L232.94934857142857,41.698268115520506L233.14363428571428,43.82669186592105L233.33792,38.951833605766325L233.5322057142857,39.81605401635173L233.72649142857142,45.78748351335528L233.92077714285716,40.86813113093379L234.11506285714285,37.42524093389514L234.3093485714286,42.421247869730024L234.5036342857143,36.69092214107516L234.89220571428572,39.961604833602934L235.08649142857143,40.690950363874464L235.28077714285715,44.57407376170161L235.47506285714286,40.58306372165683L235.66934857142854,39.49272564053538L235.86363428571428,36.88255852460864L236.05792,39.915585577487974L236.2522057142857,39.384308516979246L236.44649142857142,40.768400639295606L236.64077714285716,35.6372535824776L236.83506285714284,42.19831308722499L237.02934857142856,40.63883057236674L237.2236342857143,43.19090998172763L237.41791999999998,41.76384887099269L237.61220571428572,38.58493945002559L238.00077714285715,37.59114897251132L238.38934857142857,41.82226812839511L238.58363428571428,40.77708727121356L238.77792,42.19804784655574L238.97220571428574,37.46728157997134L239.16649142857142,38.36876830458644L239.55506285714287,41.998653173446684L239.9436342857143,37.42550617456439L240.13792,39.35274487733844L240.33220571428572,40.444939643144636L240.72077714285712,41.809801816940336L241.10934857142857,37.24514251947406L241.30363428571428,39.2148860394955L241.49792,36.61910822987559L241.69220571428573,37.16954892873767L241.88649142857142,39.701138496398954L242.27506285714287,37.09959170222285L242.46934857142855,39.081337362527876L242.6636342857143,38.456960827112226L242.85792,41.527055263519316L243.24649142857143,37.67688801884654L243.44077714285714,42.47296980023387L243.63506285714286,39.3877566456795L244.21792,44.5403881967068L244.4122057142857,39.83966043591502L244.60649142857142,42.335309892892866L244.80077714285713,39.14386785030368L244.99506285714287,41.721012502908735L245.18934857142855,36.06992742419246L245.3836342857143,42.07855692505839L245.57792,41.499006062746076L245.7722057142857,44.61850157380107L245.96649142857143,38.22540572285655L246.16077714285714,36.97996816039088L246.54934857142857,40.74565625190738L246.7436342857143,38.41505280137065L247.1322057142857,34.85857328772548L247.32649142857144,36.94873607158664L247.52077714285713,36.053416192531614L247.90934857142858,38.15810090303424L248.1036342857143,40.45952787995341L248.29792,41.650988966226606L248.49220571428572,40.83471080660823L248.68649142857143,37.46900564432147L248.88077714285714,44.16135928034785L249.07506285714288,43.75016993284228L249.26934857142857,43.07639232277873L249.46363428571428,41.38687556982043L249.65792,32.968932449817686L249.8522057142857,39.539540618658094L250.24077714285713,35.51265677809718L250.43506285714287,41.22958785295489L250.62934857142858,36.819232314825086L250.82363428571426,35.82086643576625L251.01792,38.56929025053981L251.21220571428572,44.56598392128947L251.40649142857143,39.77812460064891L251.60077714285714,40.69877496361735L251.79506285714288,42.46885856986049L251.98934857142856,42.94463402032855L252.37792000000002,39.33915129303935L252.5722057142857,38.545219659805326L252.76649142857144,39.94336953759196L252.96077714285713,42.89967572689059L253.34934857142858,37.178567111492185L253.54363428571426,35.933063238859205L253.73792,45.44897010922435L253.93220571428571,36.925129652023344L254.12649142857143,44.734743297100096L254.32077714285714,39.52535024285319L254.51506285714285,39.59829142689708L255.2922057142857,44.813851326704054L255.48649142857144,35.00246635079387L255.68077714285715,33.09618166089061L255.87506285714284,40.28095459938052L256.26363428571426,39.43424007296565L256.45792,39.280334174633055L256.6522057142857,38.82179936766627L256.8464914285714,36.54994672536853L257.04077714285717,37.326969265937834L257.4293485714286,35.33355301618579L257.6236342857143,33.866705805063276L257.81792,32.0675120353699L258.20649142857144,39.95895242691043L258.4007771428571,40.03103157877925L258.59506285714286,40.95002418756488L258.7893485714286,41.93837723135951L258.9836342857143,38.8308838605881L259.17792000000003,35.68002364039424L259.3722057142857,39.64311710000041L259.5664914285714,31.941920578479795" style="fill: none;" fill="none"></path></g></g></g></g></g></g><g transform="translate(58, 178)" clip-path="url(#clip_1)"><clipPath id="clip_1"><rect width="272" height="22"></rect></clipPath><g><g><line x1="0" y1="0" x2="0" y2="5" style="visibility: inherit;" fill="rgb(0, 0, 0)" stroke="rgb(204, 204, 204)" stroke-width="1px"></line><line x1="19.428571428571427" y1="0" x2="19.428571428571427" y2="5" style="visibility: inherit;" fill="rgb(0, 0, 0)" stroke="rgb(204, 204, 204)" stroke-width="1px"></line><line x1="38.857142857142854" y1="0" x2="38.857142857142854" y2="5" style="visibility: inherit;" fill="rgb(0, 0, 0)" stroke="rgb(204, 204, 204)" stroke-width="1px"></line><line x1="58.285714285714285" y1="0" x2="58.285714285714285" y2="5" style="visibility: inherit;" fill="rgb(0, 0, 0)" stroke="rgb(204, 204, 204)" stroke-width="1px"></line><line x1="77.71428571428571" y1="0" x2="77.71428571428571" y2="5" style="visibility: inherit;" fill="rgb(0, 0, 0)" stroke="rgb(204, 204, 204)" stroke-width="1px"></line><line x1="97.14285714285714" y1="0" x2="97.14285714285714" y2="5" style="visibility: inherit;" fill="rgb(0, 0, 0)" stroke="rgb(204, 204, 204)" stroke-width="1px"></line><line x1="116.57142857142857" y1="0" x2="116.57142857142857" y2="5" style="visibility: inherit;" fill="rgb(0, 0, 0)" stroke="rgb(204, 204, 204)" stroke-width="1px"></line><line x1="136" y1="0" x2="136" y2="5" style="visibility: inherit;" fill="rgb(0, 0, 0)" stroke="rgb(204, 204, 204)" stroke-width="1px"></line><line x1="155.42857142857142" y1="0" x2="155.42857142857142" y2="5" style="visibility: inherit;" fill="rgb(0, 0, 0)" stroke="rgb(204, 204, 204)" stroke-width="1px"></line><line x1="174.85714285714286" y1="0" x2="174.85714285714286" y2="5" style="visibility: inherit;" fill="rgb(0, 0, 0)" stroke="rgb(204, 204, 204)" stroke-width="1px"></line><line x1="194.28571428571428" y1="0" x2="194.28571428571428" y2="5" style="visibility: inherit;" fill="rgb(0, 0, 0)" stroke="rgb(204, 204, 204)" stroke-width="1px"></line><line x1="213.71428571428572" y1="0" x2="213.71428571428572" y2="5" style="visibility: inherit;" fill="rgb(0, 0, 0)" stroke="rgb(204, 204, 204)" stroke-width="1px"></line><line x1="233.14285714285714" y1="0" x2="233.14285714285714" y2="5" style="visibility: inherit;" fill="rgb(0, 0, 0)" stroke="rgb(204, 204, 204)" stroke-width="1px"></line><line x1="252.57142857142858" y1="0" x2="252.57142857142858" y2="5" style="visibility: inherit;" fill="rgb(0, 0, 0)" stroke="rgb(204, 204, 204)" stroke-width="1px"></line><line x1="272" y1="0" x2="272" y2="5" style="visibility: inherit;" fill="rgb(0, 0, 0)" stroke="rgb(204, 204, 204)" stroke-width="1px"></line></g><g transform="translate(0, 8)"><text x="0" y="0" dx="0em" dy="0.95em" style="text-anchor: middle; visibility: hidden; font-family: &quot;Helvetica Neue&quot;, sans-serif; font-size: 12px; font-weight: 200;" fill="rgb(50, 49, 63)" stroke="none" stroke-width="1px">-50k</text><text x="19.428571428571427" y="0" dx="0em" dy="0.95em" style="text-anchor: middle; visibility: inherit; font-family: &quot;Helvetica Neue&quot;, sans-serif; font-size: 12px; font-weight: 200;" fill="rgb(50, 49, 63)" stroke="none" stroke-width="1px">0</text><text x="38.857142857142854" y="0" dx="0em" dy="0.95em" style="text-anchor: middle; visibility: hidden; font-family: &quot;Helvetica Neue&quot;, sans-serif; font-size: 12px; font-weight: 200;" fill="rgb(50, 49, 63)" stroke="none" stroke-width="1px">50k</text><text x="58.285714285714285" y="0" dx="0em" dy="0.95em" style="text-anchor: middle; visibility: inherit; font-family: &quot;Helvetica Neue&quot;, sans-serif; font-size: 12px; font-weight: 200;" fill="rgb(50, 49, 63)" stroke="none" stroke-width="1px">100k</text><text x="77.71428571428571" y="0" dx="0em" dy="0.95em" style="text-anchor: middle; visibility: hidden; font-family: &quot;Helvetica Neue&quot;, sans-serif; font-size: 12px; font-weight: 200;" fill="rgb(50, 49, 63)" stroke="none" stroke-width="1px">150k</text><text x="97.14285714285714" y="0" dx="0em" dy="0.95em" style="text-anchor: middle; visibility: inherit; font-family: &quot;Helvetica Neue&quot;, sans-serif; font-size: 12px; font-weight: 200;" fill="rgb(50, 49, 63)" stroke="none" stroke-width="1px">200k</text><text x="116.57142857142857" y="0" dx="0em" dy="0.95em" style="text-anchor: middle; visibility: hidden; font-family: &quot;Helvetica Neue&quot;, sans-serif; font-size: 12px; font-weight: 200;" fill="rgb(50, 49, 63)" stroke="none" stroke-width="1px">250k</text><text x="136" y="0" dx="0em" dy="0.95em" style="text-anchor: middle; visibility: inherit; font-family: &quot;Helvetica Neue&quot;, sans-serif; font-size: 12px; font-weight: 200;" fill="rgb(50, 49, 63)" stroke="none" stroke-width="1px">300k</text><text x="155.42857142857142" y="0" dx="0em" dy="0.95em" style="text-anchor: middle; visibility: hidden; font-family: &quot;Helvetica Neue&quot;, sans-serif; font-size: 12px; font-weight: 200;" fill="rgb(50, 49, 63)" stroke="none" stroke-width="1px">350k</text><text x="174.85714285714286" y="0" dx="0em" dy="0.95em" style="text-anchor: middle; visibility: inherit; font-family: &quot;Helvetica Neue&quot;, sans-serif; font-size: 12px; font-weight: 200;" fill="rgb(50, 49, 63)" stroke="none" stroke-width="1px">400k</text><text x="194.28571428571428" y="0" dx="0em" dy="0.95em" style="text-anchor: middle; visibility: hidden; font-family: &quot;Helvetica Neue&quot;, sans-serif; font-size: 12px; font-weight: 200;" fill="rgb(50, 49, 63)" stroke="none" stroke-width="1px">450k</text><text x="213.71428571428572" y="0" dx="0em" dy="0.95em" style="text-anchor: middle; visibility: inherit; font-family: &quot;Helvetica Neue&quot;, sans-serif; font-size: 12px; font-weight: 200;" fill="rgb(50, 49, 63)" stroke="none" stroke-width="1px">500k</text><text x="233.14285714285714" y="0" dx="0em" dy="0.95em" style="text-anchor: middle; visibility: hidden; font-family: &quot;Helvetica Neue&quot;, sans-serif; font-size: 12px; font-weight: 200;" fill="rgb(50, 49, 63)" stroke="none" stroke-width="1px">550k</text><text x="252.57142857142858" y="0" dx="0em" dy="0.95em" style="text-anchor: middle; visibility: inherit; font-family: &quot;Helvetica Neue&quot;, sans-serif; font-size: 12px; font-weight: 200;" fill="rgb(50, 49, 63)" stroke="none" stroke-width="1px">600k</text><text x="272" y="0" dx="0em" dy="0.95em" style="text-anchor: middle; visibility: hidden; font-family: &quot;Helvetica Neue&quot;, sans-serif; font-size: 12px; font-weight: 200;" fill="rgb(50, 49, 63)" stroke="none" stroke-width="1px">650k</text></g><line x1="0" y1="0" x2="272" y2="0" fill="rgb(0, 0, 0)" stroke="rgb(204, 204, 204)" stroke-width="1px"></line></g></g></g></g></svg>